<svg width="17" height="17" viewBox="0 0 17 17" fill="none" xmlns="http://www.w3.org/2000/svg">
<rect x="0.645996" y="0.676636" width="16" height="16" rx="3" fill="#EAF4F4"/>
<mask id="mask0_0_1" style="mask-type:alpha" maskUnits="userSpaceOnUse" x="4" y="3" width="10" height="11">
<path d="M6.95881 13.2316C6.45281 13.2316 5.99448 13.107 5.58381 12.8576C5.18048 12.6083 4.86148 12.249 4.62681 11.7796C4.39215 11.303 4.27481 10.742 4.27481 10.0966C4.27481 8.98197 4.51315 7.95164 4.98981 7.00564C5.46648 6.0523 6.17048 5.28964 7.10181 4.71764C8.03315 4.1383 9.15148 3.84864 10.4568 3.84864C10.7941 3.84864 11.1535 3.8743 11.5348 3.92564C11.9235 3.97697 12.2755 4.05397 12.5908 4.15664C12.7961 4.2153 12.8988 4.36197 12.8988 4.59664C12.8988 4.7873 12.8255 4.96697 12.6788 5.13564C12.5395 5.3043 12.3745 5.38864 12.1838 5.38864C12.1251 5.38864 12.0811 5.38497 12.0518 5.37764C11.6705 5.28964 11.3441 5.2273 11.0728 5.19064C10.8015 5.14664 10.5155 5.12464 10.2148 5.12464C9.28348 5.12464 8.49148 5.35197 7.83881 5.80664C7.18615 6.25397 6.69848 6.84797 6.37581 7.58864C6.05315 8.3293 5.89181 9.12864 5.89181 9.98664C5.89181 10.61 6.01281 11.094 6.25481 11.4386C6.50415 11.776 6.82681 11.9446 7.22281 11.9446C7.67015 11.9446 8.06248 11.7613 8.39981 11.3946C8.73715 11.028 9.04515 10.434 9.32381 9.61264C9.60248 8.7913 9.87748 7.67664 10.1488 6.26864C10.1928 6.0633 10.2808 5.92397 10.4128 5.85064C10.5448 5.7773 10.7208 5.74064 10.9408 5.74064C11.4615 5.74064 11.7218 5.9093 11.7218 6.24664C11.7218 6.3053 11.7108 6.37864 11.6888 6.46664C11.4981 7.17797 11.3221 7.9663 11.1608 8.83164C11.0068 9.68964 10.9298 10.3423 10.9298 10.7896C10.9298 11.1856 10.9885 11.4753 11.1058 11.6586C11.2231 11.8346 11.4028 11.9226 11.6448 11.9226C11.8795 11.9226 12.1031 11.8456 12.3158 11.6916C12.5285 11.5303 12.7961 11.259 13.1188 10.8776C13.2068 10.775 13.3058 10.7236 13.4158 10.7236C13.5111 10.7236 13.5845 10.7676 13.6358 10.8556C13.6945 10.9436 13.7238 11.0646 13.7238 11.2186C13.7238 11.5046 13.6541 11.732 13.5148 11.9006C13.1555 12.3333 12.8035 12.6633 12.4588 12.8906C12.1141 13.118 11.6925 13.2316 11.1938 13.2316C10.6805 13.2316 10.2661 13.085 9.95081 12.7916C9.63548 12.491 9.43748 12.0693 9.35681 11.5266C8.81415 12.6633 8.01481 13.2316 6.95881 13.2316Z" fill="black"/>
</mask>
<g mask="url(#mask0_0_1)">
<rect x="0.645996" y="0.676636" width="16" height="16" rx="3" fill="url(#paint0_linear_0_1)"/>
</g>
<defs>
<linearGradient id="paint0_linear_0_1" x1="8.646" y1="0.676636" x2="8.646" y2="16.6766" gradientUnits="userSpaceOnUse">
<stop stop-color="#FFEA00"/>
<stop offset="0.11" stop-color="#FFDD00"/>
<stop offset="0.22" stop-color="#FFD000"/>
<stop offset="0.33" stop-color="#FFC300"/>
<stop offset="0.45" stop-color="#FFB700"/>
<stop offset="0.545" stop-color="#FFAA00"/>
<stop offset="0.655" stop-color="#FFA200"/>
<stop offset="0.765" stop-color="#FF9500"/>
<stop offset="0.89" stop-color="#FF8800"/>
<stop offset="1" stop-color="#FF7B00"/>
</linearGradient>
</defs>
</svg>
