<svg width="87" height="92" viewBox="0 0 87 92" fill="none" xmlns="http://www.w3.org/2000/svg">
<rect y="2.35492" width="86.85" height="87.468" rx="17" fill="#F0F0F0"/>
<mask id="mask0_5_3" style="mask-type:alpha" maskUnits="userSpaceOnUse" x="18" y="21" width="52" height="51">
<mask id="path-2-outside-1_5_3" maskUnits="userSpaceOnUse" x="18.0142" y="20.4406" width="52" height="52" fill="black">
<rect fill="white" x="18.0142" y="20.4406" width="52" height="52"/>
<path d="M33.1951 71.7356C30.4811 71.7356 28.0228 71.067 25.8201 69.7296C23.6568 68.3923 21.9458 66.465 20.6871 63.9476C19.4285 61.391 18.7991 58.382 18.7991 54.9206C18.7991 48.942 20.0775 43.4156 22.6341 38.3416C25.1908 33.2283 28.9668 29.1376 33.9621 26.0696C38.9575 22.9623 44.9558 21.4086 51.9571 21.4086C53.7665 21.4086 55.6938 21.5463 57.7391 21.8216C59.8238 22.097 61.7118 22.51 63.4031 23.0606C64.5045 23.3753 65.0551 24.162 65.0551 25.4206C65.0551 26.4433 64.6618 27.407 63.8751 28.3116C63.1278 29.2163 62.2428 29.6686 61.2201 29.6686C60.9055 29.6686 60.6695 29.649 60.5121 29.6096C58.4668 29.1376 56.7165 28.8033 55.2611 28.6066C53.8058 28.3706 52.2718 28.2526 50.6591 28.2526C45.6638 28.2526 41.4158 29.472 37.9151 31.9106C34.4145 34.31 31.7988 37.496 30.0681 41.4686C28.3375 45.4413 27.4721 49.7286 27.4721 54.3306C27.4721 57.674 28.1211 60.27 29.4191 62.1186C30.7565 63.928 32.4871 64.8326 34.6111 64.8326C37.0105 64.8326 39.1148 63.8493 40.9241 61.8826C42.7335 59.916 44.3855 56.73 45.8801 52.3246C47.3748 47.9193 48.8498 41.9406 50.3051 34.3886C50.5411 33.2873 51.0131 32.54 51.7211 32.1466C52.4291 31.7533 53.3731 31.5566 54.5531 31.5566C57.3458 31.5566 58.7421 32.4613 58.7421 34.2706C58.7421 34.5853 58.6831 34.9786 58.5651 35.4506C57.5425 39.266 56.5985 43.4943 55.7331 48.1356C54.9071 52.7376 54.4941 56.2383 54.4941 58.6376C54.4941 60.7616 54.8088 62.3153 55.4381 63.2986C56.0675 64.2426 57.0311 64.7146 58.3291 64.7146C59.5878 64.7146 60.7875 64.3016 61.9281 63.4756C63.0688 62.6103 64.5045 61.155 66.2351 59.1096C66.7071 58.559 67.2381 58.2836 67.8281 58.2836C68.3395 58.2836 68.7328 58.5196 69.0081 58.9916C69.3228 59.4636 69.4801 60.1126 69.4801 60.9386C69.4801 62.4726 69.1065 63.692 68.3591 64.5966C66.4318 66.9173 64.5438 68.6873 62.6951 69.9066C60.8465 71.126 58.5848 71.7356 55.9101 71.7356C53.1568 71.7356 50.9345 70.949 49.2431 69.3756C47.5518 67.763 46.4898 65.5013 46.0571 62.5906C43.1465 68.6873 38.8591 71.7356 33.1951 71.7356Z"/>
</mask>
<path d="M33.1951 71.7356C30.4811 71.7356 28.0228 71.067 25.8201 69.7296C23.6568 68.3923 21.9458 66.465 20.6871 63.9476C19.4285 61.391 18.7991 58.382 18.7991 54.9206C18.7991 48.942 20.0775 43.4156 22.6341 38.3416C25.1908 33.2283 28.9668 29.1376 33.9621 26.0696C38.9575 22.9623 44.9558 21.4086 51.9571 21.4086C53.7665 21.4086 55.6938 21.5463 57.7391 21.8216C59.8238 22.097 61.7118 22.51 63.4031 23.0606C64.5045 23.3753 65.0551 24.162 65.0551 25.4206C65.0551 26.4433 64.6618 27.407 63.8751 28.3116C63.1278 29.2163 62.2428 29.6686 61.2201 29.6686C60.9055 29.6686 60.6695 29.649 60.5121 29.6096C58.4668 29.1376 56.7165 28.8033 55.2611 28.6066C53.8058 28.3706 52.2718 28.2526 50.6591 28.2526C45.6638 28.2526 41.4158 29.472 37.9151 31.9106C34.4145 34.31 31.7988 37.496 30.0681 41.4686C28.3375 45.4413 27.4721 49.7286 27.4721 54.3306C27.4721 57.674 28.1211 60.27 29.4191 62.1186C30.7565 63.928 32.4871 64.8326 34.6111 64.8326C37.0105 64.8326 39.1148 63.8493 40.9241 61.8826C42.7335 59.916 44.3855 56.73 45.8801 52.3246C47.3748 47.9193 48.8498 41.9406 50.3051 34.3886C50.5411 33.2873 51.0131 32.54 51.7211 32.1466C52.4291 31.7533 53.3731 31.5566 54.5531 31.5566C57.3458 31.5566 58.7421 32.4613 58.7421 34.2706C58.7421 34.5853 58.6831 34.9786 58.5651 35.4506C57.5425 39.266 56.5985 43.4943 55.7331 48.1356C54.9071 52.7376 54.4941 56.2383 54.4941 58.6376C54.4941 60.7616 54.8088 62.3153 55.4381 63.2986C56.0675 64.2426 57.0311 64.7146 58.3291 64.7146C59.5878 64.7146 60.7875 64.3016 61.9281 63.4756C63.0688 62.6103 64.5045 61.155 66.2351 59.1096C66.7071 58.559 67.2381 58.2836 67.8281 58.2836C68.3395 58.2836 68.7328 58.5196 69.0081 58.9916C69.3228 59.4636 69.4801 60.1126 69.4801 60.9386C69.4801 62.4726 69.1065 63.692 68.3591 64.5966C66.4318 66.9173 64.5438 68.6873 62.6951 69.9066C60.8465 71.126 58.5848 71.7356 55.9101 71.7356C53.1568 71.7356 50.9345 70.949 49.2431 69.3756C47.5518 67.763 46.4898 65.5013 46.0571 62.5906C43.1465 68.6873 38.8591 71.7356 33.1951 71.7356Z" fill="url(#paint0_linear_5_3)"/>
<path d="M25.8201 69.7296L25.6624 69.9848L25.6644 69.9861L25.8201 69.7296ZM20.6871 63.9476L20.418 64.0802L20.4188 64.0818L20.6871 63.9476ZM22.6341 38.3416L22.902 38.4766L22.9025 38.4758L22.6341 38.3416ZM33.9621 26.0696L34.1191 26.3253L34.1206 26.3244L33.9621 26.0696ZM57.7391 21.8216L57.6991 22.119L57.6999 22.1191L57.7391 21.8216ZM63.4031 23.0606L63.3102 23.3461L63.3207 23.3491L63.4031 23.0606ZM63.8751 28.3116L63.6487 28.1147L63.6439 28.1206L63.8751 28.3116ZM60.5121 29.6096L60.5849 29.3186L60.5796 29.3173L60.5121 29.6096ZM55.2611 28.6066L55.2131 28.9029L55.221 28.9039L55.2611 28.6066ZM37.9151 31.9106L38.0847 32.1581L38.0866 32.1568L37.9151 31.9106ZM30.0681 41.4686L29.7931 41.3488L30.0681 41.4686ZM29.4191 62.1186L29.1735 62.2911L29.1779 62.297L29.4191 62.1186ZM40.9241 61.8826L41.1449 62.0858L41.1449 62.0858L40.9241 61.8826ZM45.8801 52.3246L46.1642 52.421L46.1642 52.421L45.8801 52.3246ZM50.3051 34.3886L50.0117 34.3258L50.0106 34.3319L50.3051 34.3886ZM51.7211 32.1466L51.8668 32.4089L51.8668 32.4089L51.7211 32.1466ZM58.5651 35.4506L58.8549 35.5283L58.8562 35.5234L58.5651 35.4506ZM55.7331 48.1356L55.4382 48.0807L55.4379 48.0826L55.7331 48.1356ZM55.4381 63.2986L55.1854 63.4604L55.1885 63.4651L55.4381 63.2986ZM61.9281 63.4756L62.1041 63.7187L62.1095 63.7147L61.9281 63.4756ZM66.2351 59.1096L66.0074 58.9144L66.0061 58.9159L66.2351 59.1096ZM69.0081 58.9916L68.749 59.1428L68.7535 59.1506L68.7585 59.1581L69.0081 58.9916ZM68.3591 64.5966L68.5899 64.7883L68.5904 64.7877L68.3591 64.5966ZM62.6951 69.9066L62.53 69.6562L62.53 69.6562L62.6951 69.9066ZM49.2431 69.3756L49.0361 69.5928L49.0388 69.5953L49.2431 69.3756ZM46.0571 62.5906L46.3539 62.5465L46.2095 61.5752L45.7864 62.4614L46.0571 62.5906ZM33.1951 71.4356C30.533 71.4356 28.129 70.7805 25.9758 69.4732L25.6644 69.9861C27.9166 71.3535 30.4293 72.0356 33.1951 72.0356V71.4356ZM25.9779 69.4745C23.8669 68.1695 22.192 66.2865 20.9555 63.8135L20.4188 64.0818C21.6996 66.6435 23.4467 68.6151 25.6624 69.9848L25.9779 69.4745ZM20.9563 63.8151C19.7218 61.3076 19.0991 58.3457 19.0991 54.9206H18.4991C18.4991 58.4182 19.1351 61.4743 20.418 64.0801L20.9563 63.8151ZM19.0991 54.9206C19.0991 48.9863 20.3676 43.5066 22.902 38.4766L22.3662 38.2066C19.7874 43.3247 18.4991 48.8976 18.4991 54.9206H19.0991ZM22.9025 38.4758C25.4334 33.4139 29.1702 29.3648 34.1191 26.3253L33.8051 25.814C28.7634 28.9105 24.9482 33.0427 22.3658 38.2075L22.9025 38.4758ZM34.1206 26.3244C39.06 23.2518 45.0011 21.7086 51.9571 21.7086V21.1086C44.9106 21.1086 38.8549 22.6728 33.8037 25.8149L34.1206 26.3244ZM51.9571 21.7086C53.7514 21.7086 55.6652 21.8452 57.6991 22.119L57.7792 21.5243C55.7224 21.2474 53.7816 21.1086 51.9571 21.1086V21.7086ZM57.6999 22.1191C59.7695 22.3924 61.6392 22.8018 63.3103 23.3459L63.496 22.7754C61.7844 22.2181 59.8781 21.8015 57.7784 21.5242L57.6999 22.1191ZM63.3207 23.3491C63.8185 23.4913 64.1678 23.7321 64.3964 24.0587C64.6269 24.388 64.7551 24.8339 64.7551 25.4206H65.3551C65.3551 24.7487 65.208 24.1719 64.8879 23.7146C64.5658 23.2545 64.0891 22.9446 63.4856 22.7722L63.3207 23.3491ZM64.7551 25.4206C64.7551 26.3588 64.3966 27.2548 63.6488 28.1148L64.1015 28.5085C64.927 27.5592 65.3551 26.5278 65.3551 25.4206H64.7551ZM63.6439 28.1206C62.9441 28.9677 62.1395 29.3686 61.2201 29.3686V29.9686C62.3461 29.9686 63.3115 29.465 64.1064 28.5027L63.6439 28.1206ZM61.2201 29.3686C60.9116 29.3686 60.7055 29.3488 60.5849 29.3186L60.4394 29.9007C60.6334 29.9492 60.8993 29.9686 61.2201 29.9686V29.3686ZM60.5796 29.3173C58.5287 28.844 56.7688 28.5076 55.3013 28.3093L55.221 28.9039C56.6642 29.099 58.4049 29.4312 60.4447 29.902L60.5796 29.3173ZM55.3092 28.3105C53.8366 28.0717 52.2864 27.9526 50.6591 27.9526V28.5526C52.2572 28.5526 53.7751 28.6696 55.2131 28.9028L55.3092 28.3105ZM50.6591 27.9526C45.6132 27.9526 41.3028 29.1851 37.7437 31.6645L38.0866 32.1568C41.5288 29.7589 45.7144 28.5526 50.6591 28.5526V27.9526ZM37.7455 31.6632C34.1974 34.095 31.5457 37.3257 29.7931 41.3488L30.3432 41.5885C32.0519 37.6662 34.6315 34.5249 38.0847 32.1581L37.7455 31.6632ZM29.7931 41.3488C28.045 45.3616 27.1721 49.69 27.1721 54.3306H27.7721C27.7721 49.7673 28.63 45.521 30.3432 41.5885L29.7931 41.3488ZM27.1721 54.3306C27.1721 57.7076 27.8269 60.3729 29.1736 62.291L29.6647 61.9463C28.4154 60.167 27.7721 57.6404 27.7721 54.3306H27.1721ZM29.1779 62.297C30.5679 64.1775 32.3856 65.1326 34.6111 65.1326V64.5326C32.5887 64.5326 30.9451 63.6784 29.6604 61.9403L29.1779 62.297ZM34.6111 65.1326C37.1044 65.1326 39.2859 64.1064 41.1449 62.0858L40.7034 61.6795C38.9437 63.5922 36.9165 64.5326 34.6111 64.5326V65.1326ZM41.1449 62.0858C42.9962 60.0735 44.6646 56.8409 46.1642 52.421L45.596 52.2283C44.1063 56.6191 42.4707 59.7585 40.7034 61.6795L41.1449 62.0858ZM46.1642 52.421C47.6652 47.9971 49.1432 42.0034 50.5997 34.4454L50.0106 34.3319C48.5564 41.8779 47.0844 47.8415 45.596 52.2283L46.1642 52.421ZM50.5985 34.4515C50.8237 33.4004 51.2606 32.7457 51.8668 32.4089L51.5754 31.8844C50.7657 32.3343 50.2586 33.1742 50.0118 34.3258L50.5985 34.4515ZM51.8668 32.4089C52.5145 32.0491 53.4024 31.8566 54.5531 31.8566V31.2566C53.3439 31.2566 52.3438 31.4575 51.5754 31.8844L51.8668 32.4089ZM54.5531 31.8566C55.9267 31.8566 56.905 32.0809 57.5318 32.4869C58.1361 32.8784 58.4421 33.4571 58.4421 34.2706H59.0421C59.0421 33.2749 58.6501 32.4965 57.858 31.9834C57.0884 31.4848 55.9723 31.2566 54.5531 31.2566V31.8566ZM58.4421 34.2706C58.4421 34.5513 58.389 34.9182 58.2741 35.3779L58.8562 35.5234C58.9773 35.039 59.0421 34.6193 59.0421 34.2706H58.4421ZM58.2754 35.373C57.2504 39.1971 56.3047 43.4331 55.4382 48.0807L56.0281 48.1906C56.8922 43.5555 57.8346 39.3349 58.8549 35.5283L58.2754 35.373ZM55.4379 48.0826C54.6111 52.689 54.1941 56.2109 54.1941 58.6376H54.7941C54.7941 56.2657 55.2032 52.7863 56.0284 48.1886L55.4379 48.0826ZM54.1941 58.6376C54.1941 60.7785 54.509 62.4033 55.1855 63.4604L55.6908 63.1369C55.1087 62.2273 54.7941 60.7448 54.7941 58.6376H54.1941ZM55.1885 63.4651C55.8822 64.5056 56.9477 65.0146 58.3291 65.0146V64.4146C57.1146 64.4146 56.2527 63.9797 55.6878 63.1322L55.1885 63.4651ZM58.3291 65.0146C59.6584 65.0146 60.9186 64.5771 62.1041 63.7186L61.7522 63.2327C60.6563 64.0262 59.5172 64.4146 58.3291 64.4146V65.0146ZM62.1095 63.7147C63.2767 62.8291 64.7293 61.3537 66.4642 59.3034L66.0061 58.9159C64.2796 60.9562 62.8609 62.3915 61.7468 63.2366L62.1095 63.7147ZM66.4629 59.3049C66.8922 58.8041 67.3454 58.5836 67.8281 58.5836V57.9836C67.1308 57.9836 66.5221 58.3139 66.0074 58.9144L66.4629 59.3049ZM67.8281 58.5836C68.2241 58.5836 68.5229 58.7553 68.749 59.1428L69.2673 58.8405C68.9427 58.284 68.4548 57.9836 67.8281 57.9836V58.5836ZM68.7585 59.1581C69.0285 59.5631 69.1801 60.1462 69.1801 60.9386H69.7801C69.7801 60.0791 69.6171 59.3642 69.2578 58.8252L68.7585 59.1581ZM69.1801 60.9386C69.1801 62.4246 68.8187 63.5693 68.1278 64.4056L68.5904 64.7877C69.3943 63.8146 69.7801 62.5207 69.7801 60.9386H69.1801ZM68.1284 64.405C66.2136 66.7105 64.3469 68.4578 62.53 69.6562L62.8603 70.1571C64.7407 68.9168 66.6501 67.1241 68.5899 64.7883L68.1284 64.405ZM62.53 69.6562C60.7397 70.837 58.5384 71.4356 55.9101 71.4356V72.0356C58.6312 72.0356 60.9532 71.4149 62.8603 70.1571L62.53 69.6562ZM55.9101 71.4356C53.2172 71.4356 51.0729 70.668 49.4475 69.156L49.0388 69.5953C50.796 71.2299 53.0964 72.0356 55.9101 72.0356V71.4356ZM49.4502 69.1585C47.8185 67.6028 46.7793 65.4086 46.3539 62.5465L45.7604 62.6348C46.2003 65.5941 47.2851 67.9232 49.0361 69.5928L49.4502 69.1585ZM45.7864 62.4614C44.347 65.4765 42.5767 67.7175 40.4848 69.2049C38.3959 70.6901 35.9699 71.4356 33.1951 71.4356V72.0356C36.0844 72.0356 38.6341 71.257 40.8325 69.6939C43.0279 68.1329 44.8567 65.8015 46.3279 62.7199L45.7864 62.4614Z" fill="white" mask="url(#path-2-outside-1_5_3)"/>
</mask>
<g mask="url(#mask0_5_3)">
<rect y="2.35492" width="86.85" height="86.5535" rx="17" fill="url(#paint1_linear_5_3)"/>
</g>
<defs>
<linearGradient id="paint0_linear_5_3" x1="38.6861" y1="0.440643" x2="38.6861" y2="91.7372" gradientUnits="userSpaceOnUse">
<stop/>
<stop offset="1" stop-color="#666666"/>
</linearGradient>
<linearGradient id="paint1_linear_5_3" x1="43.425" y1="2.35492" x2="43.425" y2="88.9084" gradientUnits="userSpaceOnUse">
<stop stop-color="#FFEEEE"/>
<stop offset="0.3" stop-color="#FF759C"/>
<stop offset="0.655" stop-color="#FFB017"/>
<stop offset="1" stop-color="#FFF200" stop-opacity="0.933333"/>
</linearGradient>
</defs>
</svg>
