<svg width="17" height="17" viewBox="0 0 17 17" fill="none" xmlns="http://www.w3.org/2000/svg">
<rect x="0.825928" y="0.702026" width="16" height="16" rx="3" fill="#F0F0F0"/>
<mask id="mask0_0_1" style="mask-type:alpha" maskUnits="userSpaceOnUse" x="4" y="3" width="10" height="11">
<mask id="path-2-outside-1_0_1" maskUnits="userSpaceOnUse" x="3.66229" y="3.20203" width="11" height="11" fill="black">
<rect fill="white" x="3.66229" y="3.20203" width="11" height="11"/>
<path d="M7.13856 13.257C6.63256 13.257 6.17423 13.1324 5.76356 12.883C5.36023 12.6337 5.04123 12.2744 4.80656 11.805C4.5719 11.3284 4.45456 10.7674 4.45456 10.122C4.45456 9.00736 4.6929 7.97703 5.16956 7.03103C5.64623 6.07769 6.35023 5.31503 7.28156 4.74303C8.2129 4.16369 9.33123 3.87403 10.6366 3.87403C10.9739 3.87403 11.3332 3.89969 11.7146 3.95103C12.1032 4.00236 12.4552 4.07936 12.7706 4.18203C12.9759 4.24069 13.0786 4.38736 13.0786 4.62203C13.0786 4.81269 13.0052 4.99236 12.8586 5.16103C12.7192 5.32969 12.5542 5.41403 12.3636 5.41403C12.3049 5.41403 12.2609 5.41036 12.2316 5.40303C11.8502 5.31503 11.5239 5.25269 11.2526 5.21603C10.9812 5.17203 10.6952 5.15003 10.3946 5.15003C9.46323 5.15003 8.67123 5.37736 8.01856 5.83203C7.3659 6.27936 6.87823 6.87336 6.55556 7.61403C6.2329 8.35469 6.07156 9.15403 6.07156 10.012C6.07156 10.6354 6.19256 11.1194 6.43456 11.464C6.6839 11.8014 7.00656 11.97 7.40256 11.97C7.8499 11.97 8.24223 11.7867 8.57956 11.42C8.9169 11.0534 9.2249 10.4594 9.50356 9.63803C9.78223 8.81669 10.0572 7.70203 10.3286 6.29403C10.3726 6.08869 10.4606 5.94936 10.5926 5.87603C10.7246 5.80269 10.9006 5.76603 11.1206 5.76603C11.6412 5.76603 11.9016 5.93469 11.9016 6.27203C11.9016 6.33069 11.8906 6.40403 11.8686 6.49203C11.6779 7.20336 11.5019 7.99169 11.3406 8.85703C11.1866 9.71503 11.1096 10.3677 11.1096 10.815C11.1096 11.211 11.1682 11.5007 11.2856 11.684C11.4029 11.86 11.5826 11.948 11.8246 11.948C12.0592 11.948 12.2829 11.871 12.4956 11.717C12.7082 11.5557 12.9759 11.2844 13.2986 10.903C13.3866 10.8004 13.4856 10.749 13.5956 10.749C13.6909 10.749 13.7642 10.793 13.8156 10.881C13.8742 10.969 13.9036 11.09 13.9036 11.244C13.9036 11.53 13.8339 11.7574 13.6946 11.926C13.3352 12.3587 12.9832 12.6887 12.6386 12.916C12.2939 13.1434 11.8722 13.257 11.3736 13.257C10.8602 13.257 10.4459 13.1104 10.1306 12.817C9.81523 12.5164 9.61723 12.0947 9.53656 11.552C8.9939 12.6887 8.19456 13.257 7.13856 13.257Z"/>
</mask>
<path d="M7.13856 13.257C6.63256 13.257 6.17423 13.1324 5.76356 12.883C5.36023 12.6337 5.04123 12.2744 4.80656 11.805C4.5719 11.3284 4.45456 10.7674 4.45456 10.122C4.45456 9.00736 4.6929 7.97703 5.16956 7.03103C5.64623 6.07769 6.35023 5.31503 7.28156 4.74303C8.2129 4.16369 9.33123 3.87403 10.6366 3.87403C10.9739 3.87403 11.3332 3.89969 11.7146 3.95103C12.1032 4.00236 12.4552 4.07936 12.7706 4.18203C12.9759 4.24069 13.0786 4.38736 13.0786 4.62203C13.0786 4.81269 13.0052 4.99236 12.8586 5.16103C12.7192 5.32969 12.5542 5.41403 12.3636 5.41403C12.3049 5.41403 12.2609 5.41036 12.2316 5.40303C11.8502 5.31503 11.5239 5.25269 11.2526 5.21603C10.9812 5.17203 10.6952 5.15003 10.3946 5.15003C9.46323 5.15003 8.67123 5.37736 8.01856 5.83203C7.3659 6.27936 6.87823 6.87336 6.55556 7.61403C6.2329 8.35469 6.07156 9.15403 6.07156 10.012C6.07156 10.6354 6.19256 11.1194 6.43456 11.464C6.6839 11.8014 7.00656 11.97 7.40256 11.97C7.8499 11.97 8.24223 11.7867 8.57956 11.42C8.9169 11.0534 9.2249 10.4594 9.50356 9.63803C9.78223 8.81669 10.0572 7.70203 10.3286 6.29403C10.3726 6.08869 10.4606 5.94936 10.5926 5.87603C10.7246 5.80269 10.9006 5.76603 11.1206 5.76603C11.6412 5.76603 11.9016 5.93469 11.9016 6.27203C11.9016 6.33069 11.8906 6.40403 11.8686 6.49203C11.6779 7.20336 11.5019 7.99169 11.3406 8.85703C11.1866 9.71503 11.1096 10.3677 11.1096 10.815C11.1096 11.211 11.1682 11.5007 11.2856 11.684C11.4029 11.86 11.5826 11.948 11.8246 11.948C12.0592 11.948 12.2829 11.871 12.4956 11.717C12.7082 11.5557 12.9759 11.2844 13.2986 10.903C13.3866 10.8004 13.4856 10.749 13.5956 10.749C13.6909 10.749 13.7642 10.793 13.8156 10.881C13.8742 10.969 13.9036 11.09 13.9036 11.244C13.9036 11.53 13.8339 11.7574 13.6946 11.926C13.3352 12.3587 12.9832 12.6887 12.6386 12.916C12.2939 13.1434 11.8722 13.257 11.3736 13.257C10.8602 13.257 10.4459 13.1104 10.1306 12.817C9.81523 12.5164 9.61723 12.0947 9.53656 11.552C8.9939 12.6887 8.19456 13.257 7.13856 13.257Z" fill="url(#paint0_linear_0_1)"/>
<path d="M5.76356 12.883L5.60581 13.1382L5.60787 13.1395L5.76356 12.883ZM4.80656 11.805L4.53741 11.9375L4.53823 11.9392L4.80656 11.805ZM5.16956 7.03103L5.43747 7.16602L5.43789 7.16519L5.16956 7.03103ZM7.28156 4.74303L7.43857 4.99867L7.44002 4.99776L7.28156 4.74303ZM11.7146 3.95103L11.6745 4.24835L11.6753 4.24844L11.7146 3.95103ZM12.7706 4.18203L12.6776 4.46748L12.6881 4.47048L12.7706 4.18203ZM12.8586 5.16103L12.6321 4.96411L12.6273 4.96996L12.8586 5.16103ZM12.2316 5.40303L12.3043 5.11194L12.299 5.11071L12.2316 5.40303ZM11.2526 5.21603L11.2045 5.51226L11.2124 5.51332L11.2526 5.21603ZM8.01856 5.83203L8.18817 6.07949L8.19004 6.07818L8.01856 5.83203ZM6.55556 7.61403L6.28053 7.49421L6.55556 7.61403ZM6.43456 11.464L6.18897 11.6365L6.19331 11.6423L6.43456 11.464ZM8.57956 11.42L8.80034 11.6231L8.80034 11.6231L8.57956 11.42ZM9.50356 9.63803L9.78766 9.73442L9.78766 9.73442L9.50356 9.63803ZM10.3286 6.29403L10.0352 6.23115L10.034 6.23726L10.3286 6.29403ZM10.5926 5.87603L10.7383 6.13827L10.7383 6.13827L10.5926 5.87603ZM11.8686 6.49203L12.1584 6.56971L12.1596 6.56479L11.8686 6.49203ZM11.3406 8.85703L11.0456 8.80204L11.0453 8.80403L11.3406 8.85703ZM11.2856 11.684L11.0328 11.8458L11.0359 11.8504L11.2856 11.684ZM12.4956 11.717L12.6716 11.9601L12.6769 11.956L12.4956 11.717ZM13.2986 10.903L13.0708 10.7078L13.0695 10.7092L13.2986 10.903ZM13.8156 10.881L13.5564 11.0322L13.561 11.04L13.5659 11.0474L13.8156 10.881ZM13.6946 11.926L13.9253 12.1177L13.9259 12.1171L13.6946 11.926ZM12.6386 12.916L12.4734 12.6656L12.4734 12.6656L12.6386 12.916ZM10.1306 12.817L9.92352 13.0342L9.92623 13.0367L10.1306 12.817ZM9.53656 11.552L9.8333 11.5079L9.68891 10.5366L9.26583 11.4228L9.53656 11.552ZM7.13856 12.957C6.68442 12.957 6.28045 12.8459 5.91926 12.6266L5.60787 13.1395C6.06801 13.4188 6.58071 13.557 7.13856 13.557V12.957ZM5.92131 12.6278C5.57031 12.4109 5.28739 12.0959 5.07489 11.6709L4.53823 11.9392C4.79507 12.4529 5.15015 12.8565 5.60582 13.1382L5.92131 12.6278ZM5.07571 11.6725C4.86523 11.245 4.75456 10.7311 4.75456 10.122H4.15456C4.15456 10.8036 4.27856 11.4117 4.53741 11.9375L5.07571 11.6725ZM4.75456 10.122C4.75456 9.05173 4.98301 8.06795 5.43747 7.16602L4.90165 6.89603C4.40278 7.8861 4.15456 8.96299 4.15456 10.122H4.75456ZM5.43789 7.16519C5.88885 6.26327 6.55367 5.54214 7.43857 4.99866L7.12456 4.48739C6.14679 5.08791 5.40361 5.89212 4.90123 6.89686L5.43789 7.16519ZM7.44002 4.99776C8.31542 4.45322 9.37648 4.17403 10.6366 4.17403V3.57403C9.28598 3.57403 8.11037 3.87416 7.1231 4.48829L7.44002 4.99776ZM10.6366 4.17403C10.9588 4.17403 11.3047 4.19855 11.6745 4.24834L11.7546 3.65371C11.3618 3.60083 10.989 3.57403 10.6366 3.57403V4.17403ZM11.6753 4.24844C12.0489 4.29779 12.3826 4.37122 12.6777 4.46729L12.8634 3.89676C12.5278 3.7875 12.1575 3.70692 11.7538 3.65361L11.6753 4.24844ZM12.6881 4.47048C12.7379 4.4847 12.7512 4.5015 12.7558 4.50806C12.7623 4.5174 12.7786 4.54729 12.7786 4.62203H13.3786C13.3786 4.4621 13.3435 4.30132 13.2473 4.16399C13.1493 4.02389 13.0086 3.93802 12.853 3.89357L12.6881 4.47048ZM12.7786 4.62203C12.7786 4.72819 12.74 4.84017 12.6322 4.96417L13.0849 5.35788C13.2704 5.14455 13.3786 4.8972 13.3786 4.62203H12.7786ZM12.6273 4.96996C12.5355 5.08103 12.4509 5.11403 12.3636 5.11403V5.71403C12.6575 5.71403 12.9029 5.57835 13.0899 5.35209L12.6273 4.96996ZM12.3636 5.11403C12.34 5.11403 12.323 5.11327 12.3115 5.11231C12.299 5.11127 12.2979 5.11038 12.3043 5.11198L12.1588 5.69407C12.2249 5.71058 12.2988 5.71403 12.3636 5.71403V5.11403ZM12.299 5.11071C11.9121 5.02143 11.5762 4.95703 11.2927 4.91873L11.2124 5.51332C11.4716 5.54835 11.7883 5.60862 12.1641 5.69534L12.299 5.11071ZM11.3006 4.91989C11.012 4.87309 10.7098 4.85003 10.3946 4.85003V5.45003C10.6806 5.45003 10.9505 5.47096 11.2045 5.51216L11.3006 4.91989ZM10.3946 4.85003C9.41267 4.85003 8.55823 5.09046 7.84708 5.58587L8.19004 6.07818C8.78423 5.66426 9.51378 5.45003 10.3946 5.45003V4.85003ZM7.84896 5.58457C7.14885 6.06442 6.62517 6.7031 6.28053 7.49421L6.8306 7.73384C7.13129 7.04362 7.58294 6.4943 8.18817 6.07948L7.84896 5.58457ZM6.28053 7.49421C5.94039 8.27499 5.77156 9.11539 5.77156 10.012H6.37156C6.37156 9.19266 6.5254 8.4344 6.8306 7.73384L6.28053 7.49421ZM5.77156 10.012C5.77156 10.669 5.89829 11.2223 6.18904 11.6364L6.68009 11.2916C6.48683 11.0164 6.37156 10.6018 6.37156 10.012H5.77156ZM6.19331 11.6423C6.49529 12.0509 6.90499 12.27 7.40256 12.27V11.67C7.10814 11.67 6.8725 11.5518 6.67582 11.2857L6.19331 11.6423ZM7.40256 12.27C7.94384 12.27 8.41337 12.0438 8.80034 11.6231L8.35878 11.2169C8.07108 11.5296 7.75595 11.67 7.40256 11.67V12.27ZM8.80034 11.6231C9.17965 11.2109 9.50406 10.5703 9.78766 9.73442L9.21947 9.54164C8.94573 10.3484 8.65415 10.8959 8.35878 11.2169L8.80034 11.6231ZM9.78766 9.73442C10.0726 8.89452 10.3507 7.76477 10.6231 6.35079L10.034 6.23726C9.7638 7.63928 9.49184 8.73887 9.21947 9.54164L9.78766 9.73442ZM10.6219 6.35688C10.6551 6.20182 10.708 6.15506 10.7383 6.13827L10.4469 5.61378C10.2131 5.74366 10.09 5.97557 10.0352 6.23117L10.6219 6.35688ZM10.7383 6.13827C10.8099 6.09846 10.9298 6.06603 11.1206 6.06603V5.46603C10.8713 5.46603 10.6392 5.50692 10.4469 5.61378L10.7383 6.13827ZM11.1206 6.06603C11.3581 6.06603 11.4844 6.10624 11.5432 6.1443C11.5795 6.16782 11.6016 6.19447 11.6016 6.27203H12.2016C12.2016 6.01225 12.0935 5.7859 11.8694 5.64075C11.6678 5.51015 11.4037 5.46603 11.1206 5.46603V6.06603ZM11.6016 6.27203C11.6016 6.29667 11.5964 6.34363 11.5775 6.41927L12.1596 6.56479C12.1847 6.46442 12.2016 6.36472 12.2016 6.27203H11.6016ZM11.5788 6.41436C11.3858 7.13446 11.2081 7.9305 11.0456 8.80204L11.6355 8.91201C11.7957 8.05288 11.97 7.27226 12.1583 6.5697L11.5788 6.41436ZM11.0453 8.80403C10.8905 9.66638 10.8096 10.3403 10.8096 10.815H11.4096C11.4096 10.3951 11.4826 9.76367 11.6358 8.91003L11.0453 8.80403ZM10.8096 10.815C10.8096 11.2279 10.8684 11.5887 11.0329 11.8457L11.5382 11.5223C11.4681 11.4127 11.4096 11.1941 11.4096 10.815H10.8096ZM11.0359 11.8504C11.2177 12.123 11.4991 12.248 11.8246 12.248V11.648C11.666 11.648 11.5881 11.597 11.5352 11.5176L11.0359 11.8504ZM11.8246 12.248C12.1299 12.248 12.414 12.1465 12.6715 11.96L12.3196 11.474C12.1518 11.5956 11.9886 11.648 11.8246 11.648V12.248ZM12.6769 11.956C12.9161 11.7745 13.2007 11.4831 13.5276 11.0968L13.0695 10.7092C12.7511 11.0856 12.5003 11.3369 12.3142 11.478L12.6769 11.956ZM13.5263 11.0983C13.5716 11.0455 13.5929 11.049 13.5956 11.049V10.449C13.3783 10.449 13.2015 10.5552 13.0708 10.7078L13.5263 11.0983ZM13.5956 11.049C13.5962 11.049 13.593 11.0491 13.5872 11.0476C13.5812 11.046 13.5743 11.0433 13.5677 11.0393C13.5535 11.0307 13.5513 11.0235 13.5564 11.0322L14.0747 10.7299C13.9741 10.5574 13.8062 10.449 13.5956 10.449V11.049ZM13.5659 11.0474C13.58 11.0684 13.6036 11.1236 13.6036 11.244H14.2036C14.2036 11.0564 14.1685 10.8696 14.0652 10.7146L13.5659 11.0474ZM13.6036 11.244C13.6036 11.482 13.5461 11.6347 13.4633 11.735L13.9259 12.1171C14.1217 11.88 14.2036 11.5781 14.2036 11.244H13.6036ZM13.4638 11.7344C13.117 12.1519 12.7863 12.4592 12.4734 12.6656L12.8037 13.1665C13.1801 12.9182 13.5535 12.5655 13.9253 12.1177L13.4638 11.7344ZM12.4734 12.6656C12.1871 12.8544 11.8258 12.957 11.3736 12.957V13.557C11.9186 13.557 12.4007 13.4323 12.8037 13.1665L12.4734 12.6656ZM11.3736 12.957C10.9206 12.957 10.5844 12.8294 10.3349 12.5974L9.92623 13.0367C10.3074 13.3913 10.7999 13.557 11.3736 13.557V12.957ZM10.3376 12.5999C10.0819 12.3561 9.90674 12.0019 9.8333 11.5079L9.23982 11.5961C9.32772 12.1874 9.54852 12.6766 9.92354 13.0341L10.3376 12.5999ZM9.26583 11.4228C9.01038 11.9579 8.70414 12.3389 8.35622 12.5863C8.01129 12.8315 7.6093 12.957 7.13856 12.957V13.557C7.72382 13.557 8.2495 13.3984 8.7039 13.0753C9.15532 12.7543 9.52008 12.2829 9.80729 11.6813L9.26583 11.4228Z" fill="white" mask="url(#path-2-outside-1_0_1)"/>
</mask>
<g mask="url(#mask0_0_1)">
<rect x="0.825928" y="0.702026" width="16" height="16" rx="3" fill="url(#paint1_linear_0_1)"/>
</g>
<defs>
<linearGradient id="paint0_linear_0_1" x1="8.16229" y1="-0.797974" x2="8.16229" y2="18.202" gradientUnits="userSpaceOnUse">
<stop/>
<stop offset="1" stop-color="#666666"/>
</linearGradient>
<linearGradient id="paint1_linear_0_1" x1="8.82593" y1="0.702026" x2="8.82593" y2="16.702" gradientUnits="userSpaceOnUse">
<stop stop-color="white"/>
<stop offset="0.375" stop-color="#FF93B1"/>
<stop offset="0.68" stop-color="#FFCF24"/>
<stop offset="1" stop-color="#FFF200" stop-opacity="0.933333"/>
</linearGradient>
</defs>
</svg>
