<svg width="1168" height="487" viewBox="0 0 1168 487" fill="none" xmlns="http://www.w3.org/2000/svg">
<mask id="mask0_6_2" style="mask-type:alpha" maskUnits="userSpaceOnUse" x="208" y="140" width="767" height="281">
<mask id="path-1-outside-1_6_2" maskUnits="userSpaceOnUse" x="207" y="138.902" width="770" height="283" fill="black">
<rect fill="white" x="207" y="138.902" width="770" height="283"/>
<path d="M257.77 329.902C248.57 329.902 240.236 327.635 232.77 323.102C225.436 318.569 219.636 312.035 215.37 303.502C211.103 294.835 208.97 284.635 208.97 272.902C208.97 252.635 213.303 233.902 221.97 216.702C230.636 199.369 243.436 185.502 260.37 175.102C277.303 164.569 297.636 159.302 321.37 159.302C327.503 159.302 334.036 159.769 340.97 160.702C348.036 161.635 354.436 163.035 360.17 164.902C363.903 165.969 365.77 168.635 365.77 172.902C365.77 176.369 364.436 179.635 361.77 182.702C359.236 185.769 356.236 187.302 352.77 187.302C351.703 187.302 350.903 187.235 350.37 187.102C343.436 185.502 337.503 184.369 332.57 183.702C327.636 182.902 322.436 182.502 316.97 182.502C300.036 182.502 285.636 186.635 273.77 194.902C261.903 203.035 253.036 213.835 247.17 227.302C241.303 240.769 238.37 255.302 238.37 270.902C238.37 282.235 240.57 291.035 244.97 297.302C249.503 303.435 255.37 306.502 262.57 306.502C270.703 306.502 277.836 303.169 283.97 296.502C290.103 289.835 295.703 279.035 300.77 264.102C305.836 249.169 310.836 228.902 315.77 203.302C316.57 199.569 318.17 197.035 320.57 195.702C322.97 194.369 326.17 193.702 330.17 193.702C339.636 193.702 344.37 196.769 344.37 202.902C344.37 203.969 344.17 205.302 343.77 206.902C340.303 219.835 337.103 234.169 334.17 249.902C331.37 265.502 329.97 277.369 329.97 285.502C329.97 292.702 331.036 297.969 333.17 301.302C335.303 304.502 338.57 306.102 342.97 306.102C347.236 306.102 351.303 304.702 355.17 301.902C359.036 298.969 363.903 294.035 369.77 287.102C371.37 285.235 373.17 284.302 375.17 284.302C376.903 284.302 378.236 285.102 379.17 286.702C380.236 288.302 380.77 290.502 380.77 293.302C380.77 298.502 379.503 302.635 376.97 305.702C370.436 313.569 364.036 319.569 357.77 323.702C351.503 327.835 343.836 329.902 334.77 329.902C325.436 329.902 317.903 327.235 312.17 321.902C306.436 316.435 302.836 308.769 301.37 298.902C291.503 319.569 276.97 329.902 257.77 329.902ZM440.396 284.302C442.129 284.302 443.463 285.102 444.396 286.702C445.463 288.302 445.996 290.502 445.996 293.302C445.996 298.635 444.729 302.769 442.196 305.702C436.463 312.769 430.196 318.569 423.396 323.102C416.729 327.635 409.129 329.902 400.596 329.902C388.863 329.902 380.129 324.569 374.396 313.902C368.796 303.235 365.996 289.435 365.996 272.502C365.996 256.235 368.063 237.702 372.196 216.902C376.463 196.102 382.663 178.235 390.796 163.302C399.063 148.369 408.863 140.902 420.196 140.902C426.596 140.902 431.596 143.902 435.196 149.902C438.929 155.769 440.796 164.235 440.796 175.302C440.796 191.169 436.396 209.569 427.596 230.502C418.796 251.435 406.863 272.169 391.796 292.702C392.729 298.169 394.263 302.102 396.396 304.502C398.529 306.769 401.329 307.902 404.796 307.902C410.263 307.902 415.063 306.369 419.196 303.302C423.329 300.102 428.596 294.702 434.996 287.102C436.596 285.235 438.396 284.302 440.396 284.302ZM415.796 160.702C412.729 160.702 409.263 166.235 405.396 177.302C401.529 188.369 398.129 202.102 395.196 218.502C392.263 234.902 390.663 250.635 390.396 265.702C399.863 250.102 407.396 234.502 412.996 218.902C418.596 203.169 421.396 188.835 421.396 175.902C421.396 165.769 419.529 160.702 415.796 160.702ZM505.63 284.302C507.364 284.302 508.697 285.102 509.63 286.702C510.697 288.302 511.23 290.502 511.23 293.302C511.23 298.635 509.964 302.769 507.43 305.702C501.697 312.769 495.43 318.569 488.63 323.102C481.964 327.635 474.364 329.902 465.83 329.902C454.097 329.902 445.364 324.569 439.63 313.902C434.03 303.235 431.23 289.435 431.23 272.502C431.23 256.235 433.297 237.702 437.43 216.902C441.697 196.102 447.897 178.235 456.03 163.302C464.297 148.369 474.097 140.902 485.43 140.902C491.83 140.902 496.83 143.902 500.43 149.902C504.164 155.769 506.03 164.235 506.03 175.302C506.03 191.169 501.63 209.569 492.83 230.502C484.03 251.435 472.097 272.169 457.03 292.702C457.964 298.169 459.497 302.102 461.63 304.502C463.764 306.769 466.564 307.902 470.03 307.902C475.497 307.902 480.297 306.369 484.43 303.302C488.564 300.102 493.83 294.702 500.23 287.102C501.83 285.235 503.63 284.302 505.63 284.302ZM481.03 160.702C477.964 160.702 474.497 166.235 470.63 177.302C466.764 188.369 463.364 202.102 460.43 218.502C457.497 234.902 455.897 250.635 455.63 265.702C465.097 250.102 472.63 234.502 478.23 218.902C483.83 203.169 486.63 188.835 486.63 175.902C486.63 165.769 484.764 160.702 481.03 160.702ZM550.865 330.502C533.132 330.502 518.932 327.169 508.265 320.502C497.598 313.702 492.265 303.369 492.265 289.502C492.265 282.169 493.532 276.569 496.065 272.702C498.598 268.835 502.332 266.902 507.265 266.902C510.865 266.902 513.798 267.835 516.065 269.702C518.332 271.569 519.465 273.969 519.465 276.902C519.465 279.569 519.265 281.902 518.865 283.902C518.865 284.435 518.732 285.369 518.465 286.702C518.332 288.035 518.265 289.435 518.265 290.902C518.265 296.902 521.265 301.369 527.265 304.302C533.398 307.235 541.932 308.702 552.865 308.702C564.198 308.702 573.065 306.702 579.465 302.702C585.865 298.569 589.065 292.835 589.065 285.502C589.065 280.969 587.598 277.102 584.665 273.902C581.732 270.569 578.065 267.835 573.665 265.702C569.265 263.435 563.065 260.702 555.065 257.502C544.798 253.502 536.398 249.702 529.865 246.102C523.465 242.502 517.932 237.635 513.265 231.502C508.732 225.235 506.465 217.502 506.465 208.302C506.465 198.702 508.998 190.169 514.065 182.702C519.265 175.235 526.665 169.435 536.265 165.302C545.998 161.169 557.398 159.102 570.465 159.102C580.198 159.102 589.132 160.569 597.265 163.502C605.398 166.302 611.865 170.635 616.665 176.502C621.598 182.369 624.065 189.569 624.065 198.102C624.065 206.502 622.798 212.835 620.265 217.102C617.732 221.369 613.998 223.502 609.065 223.502C605.598 223.502 602.665 222.435 600.265 220.302C597.998 218.169 596.865 215.635 596.865 212.702C596.865 210.169 597.065 207.835 597.465 205.702C597.865 201.702 598.065 199.169 598.065 198.102C598.065 192.502 595.332 188.235 589.865 185.302C584.398 182.369 577.598 180.902 569.465 180.902C557.998 180.902 549.198 183.035 543.065 187.302C537.065 191.435 534.065 197.302 534.065 204.902C534.065 209.969 535.598 214.302 538.665 217.902C541.865 221.502 545.798 224.502 550.465 226.902C555.132 229.302 561.665 232.169 570.065 235.502C580.198 239.635 588.332 243.369 594.465 246.702C600.598 250.035 605.798 254.569 610.065 260.302C614.465 266.035 616.665 273.102 616.665 281.502C616.665 297.235 610.665 309.369 598.665 317.902C586.798 326.302 570.865 330.502 550.865 330.502ZM740.537 284.302C742.27 284.302 743.603 285.102 744.537 286.702C745.603 288.302 746.137 290.502 746.137 293.302C746.137 298.635 744.87 302.769 742.337 305.702C736.603 312.769 730.403 318.569 723.737 323.102C717.203 327.635 709.737 329.902 701.337 329.902C694.27 329.902 688.537 327.369 684.137 322.302C676.537 327.235 668.603 329.769 660.337 329.902C658.603 355.635 654.67 377.102 648.537 394.302C642.403 411.635 633.403 420.302 621.537 420.302C614.337 420.302 609.003 417.702 605.537 412.502C602.07 407.302 600.337 400.102 600.337 390.902C600.337 377.835 603.337 362.569 609.337 345.102C615.337 327.769 624.603 308.635 637.137 287.702C637.137 268.235 637.003 254.702 636.737 247.102C636.603 243.235 638.137 240.169 641.337 237.902C644.537 235.635 648.537 234.502 653.337 234.502C656.137 234.502 658.137 235.102 659.337 236.302C660.67 237.369 661.403 239.569 661.537 242.902C661.537 246.235 661.603 248.702 661.737 250.302C666.003 244.969 670.203 241.169 674.337 238.902C678.47 236.502 682.87 235.302 687.537 235.302C695.003 235.302 701.07 238.302 705.737 244.302C710.537 250.302 712.937 258.169 712.937 267.902C712.937 274.969 711.803 281.835 709.537 288.502C707.27 295.169 704.137 301.235 700.137 306.702C702.937 307.502 705.27 307.902 707.137 307.902C711.537 307.902 715.737 306.302 719.737 303.102C723.737 299.902 728.87 294.569 735.137 287.102C736.737 285.235 738.537 284.302 740.537 284.302ZM661.337 310.702C666.137 309.635 670.537 307.035 674.537 302.902C678.67 298.635 681.937 293.435 684.337 287.302C686.737 281.035 687.937 274.502 687.937 267.702C687.937 263.702 687.137 260.702 685.537 258.702C683.937 256.569 681.803 255.502 679.137 255.502C674.337 255.502 668.537 260.569 661.737 270.702C661.603 276.569 661.537 285.169 661.537 296.502C661.537 302.635 661.47 307.369 661.337 310.702ZM623.137 400.702C626.737 400.702 629.737 392.835 632.137 377.102C634.537 361.502 636.07 342.035 636.737 318.702C631.003 332.035 626.47 344.769 623.137 356.902C619.803 369.035 618.137 379.235 618.137 387.502C618.137 391.769 618.67 395.035 619.737 397.302C620.67 399.569 621.803 400.702 623.137 400.702ZM754.626 329.902C746.359 329.902 739.759 326.902 734.826 320.902C729.892 314.902 727.426 307.035 727.426 297.302C727.426 286.635 729.892 276.569 734.826 267.102C739.759 257.502 746.292 249.835 754.426 244.102C762.692 238.235 771.426 235.302 780.626 235.302C783.559 235.302 785.492 235.902 786.426 237.102C787.492 238.169 788.359 240.169 789.026 243.102C791.826 242.569 794.759 242.302 797.826 242.302C804.359 242.302 807.626 244.635 807.626 249.302C807.626 252.102 806.626 258.769 804.626 269.302C801.559 284.635 800.026 295.302 800.026 301.302C800.026 303.302 800.492 304.902 801.426 306.102C802.492 307.302 803.826 307.902 805.426 307.902C807.959 307.902 811.026 306.302 814.626 303.102C818.226 299.769 823.092 294.435 829.226 287.102C830.826 285.235 832.626 284.302 834.626 284.302C836.359 284.302 837.692 285.102 838.626 286.702C839.692 288.302 840.226 290.502 840.226 293.302C840.226 298.635 838.959 302.769 836.426 305.702C830.959 312.502 825.159 318.235 819.026 322.902C812.892 327.569 806.959 329.902 801.226 329.902C796.826 329.902 792.759 328.435 789.026 325.502C785.426 322.435 782.692 318.302 780.826 313.102C773.892 324.302 765.159 329.902 754.626 329.902ZM761.826 309.702C764.759 309.702 767.559 307.969 770.226 304.502C772.892 301.035 774.826 296.435 776.026 290.702L783.426 253.902C777.826 254.035 772.626 256.169 767.826 260.302C763.159 264.302 759.426 269.635 756.626 276.302C753.826 282.969 752.426 290.035 752.426 297.502C752.426 301.635 753.226 304.702 754.826 306.702C756.559 308.702 758.892 309.702 761.826 309.702ZM862.171 329.902C849.104 329.902 838.904 326.235 831.571 318.902C824.371 311.435 820.771 301.635 820.771 289.502C820.771 278.702 822.904 269.235 827.171 261.102C831.438 252.969 836.971 246.702 843.771 242.302C850.571 237.902 857.704 235.702 865.171 235.702C872.504 235.702 878.171 237.902 882.171 242.302C886.304 246.569 888.371 252.102 888.371 258.902C888.371 264.502 887.104 269.235 884.571 273.102C882.171 276.969 878.971 278.902 874.971 278.902C872.438 278.902 870.371 278.302 868.771 277.102C867.304 275.902 866.571 274.235 866.571 272.102C866.571 271.169 866.704 270.102 866.971 268.902C867.238 267.702 867.438 266.835 867.571 266.302C868.238 264.302 868.571 262.435 868.571 260.702C868.571 258.969 868.104 257.635 867.171 256.702C866.371 255.769 865.171 255.302 863.571 255.302C860.504 255.302 857.638 256.702 854.971 259.502C852.304 262.169 850.171 265.835 848.571 270.502C846.971 275.169 846.171 280.302 846.171 285.902C846.171 301.369 852.904 309.102 866.371 309.102C871.838 309.102 877.704 307.302 883.971 303.702C890.371 299.969 896.638 294.435 902.771 287.102C904.371 285.235 906.171 284.302 908.171 284.302C909.904 284.302 911.238 285.102 912.171 286.702C913.238 288.302 913.771 290.502 913.771 293.302C913.771 298.369 912.504 302.502 909.971 305.702C903.704 313.435 896.171 319.435 887.371 323.702C878.704 327.835 870.304 329.902 862.171 329.902ZM969.204 290.302C970.937 290.302 972.271 291.102 973.204 292.702C974.271 294.302 974.804 296.502 974.804 299.302C974.804 304.102 973.671 308.235 971.404 311.702C967.671 317.435 962.737 321.902 956.604 325.102C950.604 328.302 943.404 329.902 935.004 329.902C922.204 329.902 912.271 326.102 905.204 318.502C898.137 310.769 894.604 300.369 894.604 287.302C894.604 278.102 896.537 269.569 900.404 261.702C904.271 253.702 909.604 247.369 916.404 242.702C923.337 238.035 931.137 235.702 939.804 235.702C947.537 235.702 953.737 238.035 958.404 242.702C963.071 247.235 965.404 253.435 965.404 261.302C965.404 270.502 962.071 278.435 955.404 285.102C948.871 291.635 937.671 296.835 921.804 300.702C925.004 306.835 930.404 309.902 938.004 309.902C943.471 309.902 947.937 308.635 951.404 306.102C955.004 303.569 959.137 299.302 963.804 293.302C965.404 291.302 967.204 290.302 969.204 290.302ZM936.404 255.302C931.471 255.302 927.271 258.169 923.804 263.902C920.471 269.635 918.804 276.569 918.804 284.702V285.102C926.671 283.235 932.871 280.435 937.404 276.702C941.937 272.969 944.204 268.635 944.204 263.702C944.204 261.169 943.471 259.169 942.004 257.702C940.671 256.102 938.804 255.302 936.404 255.302Z"/>
</mask>
<path d="M257.77 329.902C248.57 329.902 240.236 327.635 232.77 323.102C225.436 318.569 219.636 312.035 215.37 303.502C211.103 294.835 208.97 284.635 208.97 272.902C208.97 252.635 213.303 233.902 221.97 216.702C230.636 199.369 243.436 185.502 260.37 175.102C277.303 164.569 297.636 159.302 321.37 159.302C327.503 159.302 334.036 159.769 340.97 160.702C348.036 161.635 354.436 163.035 360.17 164.902C363.903 165.969 365.77 168.635 365.77 172.902C365.77 176.369 364.436 179.635 361.77 182.702C359.236 185.769 356.236 187.302 352.77 187.302C351.703 187.302 350.903 187.235 350.37 187.102C343.436 185.502 337.503 184.369 332.57 183.702C327.636 182.902 322.436 182.502 316.97 182.502C300.036 182.502 285.636 186.635 273.77 194.902C261.903 203.035 253.036 213.835 247.17 227.302C241.303 240.769 238.37 255.302 238.37 270.902C238.37 282.235 240.57 291.035 244.97 297.302C249.503 303.435 255.37 306.502 262.57 306.502C270.703 306.502 277.836 303.169 283.97 296.502C290.103 289.835 295.703 279.035 300.77 264.102C305.836 249.169 310.836 228.902 315.77 203.302C316.57 199.569 318.17 197.035 320.57 195.702C322.97 194.369 326.17 193.702 330.17 193.702C339.636 193.702 344.37 196.769 344.37 202.902C344.37 203.969 344.17 205.302 343.77 206.902C340.303 219.835 337.103 234.169 334.17 249.902C331.37 265.502 329.97 277.369 329.97 285.502C329.97 292.702 331.036 297.969 333.17 301.302C335.303 304.502 338.57 306.102 342.97 306.102C347.236 306.102 351.303 304.702 355.17 301.902C359.036 298.969 363.903 294.035 369.77 287.102C371.37 285.235 373.17 284.302 375.17 284.302C376.903 284.302 378.236 285.102 379.17 286.702C380.236 288.302 380.77 290.502 380.77 293.302C380.77 298.502 379.503 302.635 376.97 305.702C370.436 313.569 364.036 319.569 357.77 323.702C351.503 327.835 343.836 329.902 334.77 329.902C325.436 329.902 317.903 327.235 312.17 321.902C306.436 316.435 302.836 308.769 301.37 298.902C291.503 319.569 276.97 329.902 257.77 329.902ZM440.396 284.302C442.129 284.302 443.463 285.102 444.396 286.702C445.463 288.302 445.996 290.502 445.996 293.302C445.996 298.635 444.729 302.769 442.196 305.702C436.463 312.769 430.196 318.569 423.396 323.102C416.729 327.635 409.129 329.902 400.596 329.902C388.863 329.902 380.129 324.569 374.396 313.902C368.796 303.235 365.996 289.435 365.996 272.502C365.996 256.235 368.063 237.702 372.196 216.902C376.463 196.102 382.663 178.235 390.796 163.302C399.063 148.369 408.863 140.902 420.196 140.902C426.596 140.902 431.596 143.902 435.196 149.902C438.929 155.769 440.796 164.235 440.796 175.302C440.796 191.169 436.396 209.569 427.596 230.502C418.796 251.435 406.863 272.169 391.796 292.702C392.729 298.169 394.263 302.102 396.396 304.502C398.529 306.769 401.329 307.902 404.796 307.902C410.263 307.902 415.063 306.369 419.196 303.302C423.329 300.102 428.596 294.702 434.996 287.102C436.596 285.235 438.396 284.302 440.396 284.302ZM415.796 160.702C412.729 160.702 409.263 166.235 405.396 177.302C401.529 188.369 398.129 202.102 395.196 218.502C392.263 234.902 390.663 250.635 390.396 265.702C399.863 250.102 407.396 234.502 412.996 218.902C418.596 203.169 421.396 188.835 421.396 175.902C421.396 165.769 419.529 160.702 415.796 160.702ZM505.63 284.302C507.364 284.302 508.697 285.102 509.63 286.702C510.697 288.302 511.23 290.502 511.23 293.302C511.23 298.635 509.964 302.769 507.43 305.702C501.697 312.769 495.43 318.569 488.63 323.102C481.964 327.635 474.364 329.902 465.83 329.902C454.097 329.902 445.364 324.569 439.63 313.902C434.03 303.235 431.23 289.435 431.23 272.502C431.23 256.235 433.297 237.702 437.43 216.902C441.697 196.102 447.897 178.235 456.03 163.302C464.297 148.369 474.097 140.902 485.43 140.902C491.83 140.902 496.83 143.902 500.43 149.902C504.164 155.769 506.03 164.235 506.03 175.302C506.03 191.169 501.63 209.569 492.83 230.502C484.03 251.435 472.097 272.169 457.03 292.702C457.964 298.169 459.497 302.102 461.63 304.502C463.764 306.769 466.564 307.902 470.03 307.902C475.497 307.902 480.297 306.369 484.43 303.302C488.564 300.102 493.83 294.702 500.23 287.102C501.83 285.235 503.63 284.302 505.63 284.302ZM481.03 160.702C477.964 160.702 474.497 166.235 470.63 177.302C466.764 188.369 463.364 202.102 460.43 218.502C457.497 234.902 455.897 250.635 455.63 265.702C465.097 250.102 472.63 234.502 478.23 218.902C483.83 203.169 486.63 188.835 486.63 175.902C486.63 165.769 484.764 160.702 481.03 160.702ZM550.865 330.502C533.132 330.502 518.932 327.169 508.265 320.502C497.598 313.702 492.265 303.369 492.265 289.502C492.265 282.169 493.532 276.569 496.065 272.702C498.598 268.835 502.332 266.902 507.265 266.902C510.865 266.902 513.798 267.835 516.065 269.702C518.332 271.569 519.465 273.969 519.465 276.902C519.465 279.569 519.265 281.902 518.865 283.902C518.865 284.435 518.732 285.369 518.465 286.702C518.332 288.035 518.265 289.435 518.265 290.902C518.265 296.902 521.265 301.369 527.265 304.302C533.398 307.235 541.932 308.702 552.865 308.702C564.198 308.702 573.065 306.702 579.465 302.702C585.865 298.569 589.065 292.835 589.065 285.502C589.065 280.969 587.598 277.102 584.665 273.902C581.732 270.569 578.065 267.835 573.665 265.702C569.265 263.435 563.065 260.702 555.065 257.502C544.798 253.502 536.398 249.702 529.865 246.102C523.465 242.502 517.932 237.635 513.265 231.502C508.732 225.235 506.465 217.502 506.465 208.302C506.465 198.702 508.998 190.169 514.065 182.702C519.265 175.235 526.665 169.435 536.265 165.302C545.998 161.169 557.398 159.102 570.465 159.102C580.198 159.102 589.132 160.569 597.265 163.502C605.398 166.302 611.865 170.635 616.665 176.502C621.598 182.369 624.065 189.569 624.065 198.102C624.065 206.502 622.798 212.835 620.265 217.102C617.732 221.369 613.998 223.502 609.065 223.502C605.598 223.502 602.665 222.435 600.265 220.302C597.998 218.169 596.865 215.635 596.865 212.702C596.865 210.169 597.065 207.835 597.465 205.702C597.865 201.702 598.065 199.169 598.065 198.102C598.065 192.502 595.332 188.235 589.865 185.302C584.398 182.369 577.598 180.902 569.465 180.902C557.998 180.902 549.198 183.035 543.065 187.302C537.065 191.435 534.065 197.302 534.065 204.902C534.065 209.969 535.598 214.302 538.665 217.902C541.865 221.502 545.798 224.502 550.465 226.902C555.132 229.302 561.665 232.169 570.065 235.502C580.198 239.635 588.332 243.369 594.465 246.702C600.598 250.035 605.798 254.569 610.065 260.302C614.465 266.035 616.665 273.102 616.665 281.502C616.665 297.235 610.665 309.369 598.665 317.902C586.798 326.302 570.865 330.502 550.865 330.502ZM740.537 284.302C742.27 284.302 743.603 285.102 744.537 286.702C745.603 288.302 746.137 290.502 746.137 293.302C746.137 298.635 744.87 302.769 742.337 305.702C736.603 312.769 730.403 318.569 723.737 323.102C717.203 327.635 709.737 329.902 701.337 329.902C694.27 329.902 688.537 327.369 684.137 322.302C676.537 327.235 668.603 329.769 660.337 329.902C658.603 355.635 654.67 377.102 648.537 394.302C642.403 411.635 633.403 420.302 621.537 420.302C614.337 420.302 609.003 417.702 605.537 412.502C602.07 407.302 600.337 400.102 600.337 390.902C600.337 377.835 603.337 362.569 609.337 345.102C615.337 327.769 624.603 308.635 637.137 287.702C637.137 268.235 637.003 254.702 636.737 247.102C636.603 243.235 638.137 240.169 641.337 237.902C644.537 235.635 648.537 234.502 653.337 234.502C656.137 234.502 658.137 235.102 659.337 236.302C660.67 237.369 661.403 239.569 661.537 242.902C661.537 246.235 661.603 248.702 661.737 250.302C666.003 244.969 670.203 241.169 674.337 238.902C678.47 236.502 682.87 235.302 687.537 235.302C695.003 235.302 701.07 238.302 705.737 244.302C710.537 250.302 712.937 258.169 712.937 267.902C712.937 274.969 711.803 281.835 709.537 288.502C707.27 295.169 704.137 301.235 700.137 306.702C702.937 307.502 705.27 307.902 707.137 307.902C711.537 307.902 715.737 306.302 719.737 303.102C723.737 299.902 728.87 294.569 735.137 287.102C736.737 285.235 738.537 284.302 740.537 284.302ZM661.337 310.702C666.137 309.635 670.537 307.035 674.537 302.902C678.67 298.635 681.937 293.435 684.337 287.302C686.737 281.035 687.937 274.502 687.937 267.702C687.937 263.702 687.137 260.702 685.537 258.702C683.937 256.569 681.803 255.502 679.137 255.502C674.337 255.502 668.537 260.569 661.737 270.702C661.603 276.569 661.537 285.169 661.537 296.502C661.537 302.635 661.47 307.369 661.337 310.702ZM623.137 400.702C626.737 400.702 629.737 392.835 632.137 377.102C634.537 361.502 636.07 342.035 636.737 318.702C631.003 332.035 626.47 344.769 623.137 356.902C619.803 369.035 618.137 379.235 618.137 387.502C618.137 391.769 618.67 395.035 619.737 397.302C620.67 399.569 621.803 400.702 623.137 400.702ZM754.626 329.902C746.359 329.902 739.759 326.902 734.826 320.902C729.892 314.902 727.426 307.035 727.426 297.302C727.426 286.635 729.892 276.569 734.826 267.102C739.759 257.502 746.292 249.835 754.426 244.102C762.692 238.235 771.426 235.302 780.626 235.302C783.559 235.302 785.492 235.902 786.426 237.102C787.492 238.169 788.359 240.169 789.026 243.102C791.826 242.569 794.759 242.302 797.826 242.302C804.359 242.302 807.626 244.635 807.626 249.302C807.626 252.102 806.626 258.769 804.626 269.302C801.559 284.635 800.026 295.302 800.026 301.302C800.026 303.302 800.492 304.902 801.426 306.102C802.492 307.302 803.826 307.902 805.426 307.902C807.959 307.902 811.026 306.302 814.626 303.102C818.226 299.769 823.092 294.435 829.226 287.102C830.826 285.235 832.626 284.302 834.626 284.302C836.359 284.302 837.692 285.102 838.626 286.702C839.692 288.302 840.226 290.502 840.226 293.302C840.226 298.635 838.959 302.769 836.426 305.702C830.959 312.502 825.159 318.235 819.026 322.902C812.892 327.569 806.959 329.902 801.226 329.902C796.826 329.902 792.759 328.435 789.026 325.502C785.426 322.435 782.692 318.302 780.826 313.102C773.892 324.302 765.159 329.902 754.626 329.902ZM761.826 309.702C764.759 309.702 767.559 307.969 770.226 304.502C772.892 301.035 774.826 296.435 776.026 290.702L783.426 253.902C777.826 254.035 772.626 256.169 767.826 260.302C763.159 264.302 759.426 269.635 756.626 276.302C753.826 282.969 752.426 290.035 752.426 297.502C752.426 301.635 753.226 304.702 754.826 306.702C756.559 308.702 758.892 309.702 761.826 309.702ZM862.171 329.902C849.104 329.902 838.904 326.235 831.571 318.902C824.371 311.435 820.771 301.635 820.771 289.502C820.771 278.702 822.904 269.235 827.171 261.102C831.438 252.969 836.971 246.702 843.771 242.302C850.571 237.902 857.704 235.702 865.171 235.702C872.504 235.702 878.171 237.902 882.171 242.302C886.304 246.569 888.371 252.102 888.371 258.902C888.371 264.502 887.104 269.235 884.571 273.102C882.171 276.969 878.971 278.902 874.971 278.902C872.438 278.902 870.371 278.302 868.771 277.102C867.304 275.902 866.571 274.235 866.571 272.102C866.571 271.169 866.704 270.102 866.971 268.902C867.238 267.702 867.438 266.835 867.571 266.302C868.238 264.302 868.571 262.435 868.571 260.702C868.571 258.969 868.104 257.635 867.171 256.702C866.371 255.769 865.171 255.302 863.571 255.302C860.504 255.302 857.638 256.702 854.971 259.502C852.304 262.169 850.171 265.835 848.571 270.502C846.971 275.169 846.171 280.302 846.171 285.902C846.171 301.369 852.904 309.102 866.371 309.102C871.838 309.102 877.704 307.302 883.971 303.702C890.371 299.969 896.638 294.435 902.771 287.102C904.371 285.235 906.171 284.302 908.171 284.302C909.904 284.302 911.238 285.102 912.171 286.702C913.238 288.302 913.771 290.502 913.771 293.302C913.771 298.369 912.504 302.502 909.971 305.702C903.704 313.435 896.171 319.435 887.371 323.702C878.704 327.835 870.304 329.902 862.171 329.902ZM969.204 290.302C970.937 290.302 972.271 291.102 973.204 292.702C974.271 294.302 974.804 296.502 974.804 299.302C974.804 304.102 973.671 308.235 971.404 311.702C967.671 317.435 962.737 321.902 956.604 325.102C950.604 328.302 943.404 329.902 935.004 329.902C922.204 329.902 912.271 326.102 905.204 318.502C898.137 310.769 894.604 300.369 894.604 287.302C894.604 278.102 896.537 269.569 900.404 261.702C904.271 253.702 909.604 247.369 916.404 242.702C923.337 238.035 931.137 235.702 939.804 235.702C947.537 235.702 953.737 238.035 958.404 242.702C963.071 247.235 965.404 253.435 965.404 261.302C965.404 270.502 962.071 278.435 955.404 285.102C948.871 291.635 937.671 296.835 921.804 300.702C925.004 306.835 930.404 309.902 938.004 309.902C943.471 309.902 947.937 308.635 951.404 306.102C955.004 303.569 959.137 299.302 963.804 293.302C965.404 291.302 967.204 290.302 969.204 290.302ZM936.404 255.302C931.471 255.302 927.271 258.169 923.804 263.902C920.471 269.635 918.804 276.569 918.804 284.702V285.102C926.671 283.235 932.871 280.435 937.404 276.702C941.937 272.969 944.204 268.635 944.204 263.702C944.204 261.169 943.471 259.169 942.004 257.702C940.671 256.102 938.804 255.302 936.404 255.302Z" fill="black"/>
<path d="M232.77 323.102L231.981 324.378L231.991 324.384L232.77 323.102ZM215.37 303.502L214.024 304.165L214.028 304.173L215.37 303.502ZM221.97 216.702L223.309 217.377L223.311 217.373L221.97 216.702ZM260.37 175.102L261.155 176.38L261.162 176.376L260.37 175.102ZM340.97 160.702L340.769 162.189L340.773 162.189L340.97 160.702ZM360.17 164.902L359.705 166.328L359.731 166.337L359.757 166.344L360.17 164.902ZM361.77 182.702L360.638 181.718L360.625 181.732L360.613 181.747L361.77 182.702ZM350.37 187.102L350.733 185.647L350.72 185.643L350.707 185.64L350.37 187.102ZM332.57 183.702L332.329 185.183L332.349 185.186L332.369 185.188L332.57 183.702ZM273.77 194.902L274.618 196.139L274.627 196.133L273.77 194.902ZM247.17 227.302L245.794 226.703L247.17 227.302ZM244.97 297.302L243.742 298.164L243.752 298.179L243.763 298.194L244.97 297.302ZM283.97 296.502L285.073 297.518L285.073 297.518L283.97 296.502ZM300.77 264.102L302.19 264.584L302.19 264.584L300.77 264.102ZM315.77 203.302L314.303 202.988L314.3 203.003L314.297 203.018L315.77 203.302ZM320.57 195.702L321.298 197.013L321.298 197.013L320.57 195.702ZM343.77 206.902L345.218 207.29L345.222 207.278L345.225 207.266L343.77 206.902ZM334.17 249.902L332.695 249.627L332.693 249.637L334.17 249.902ZM333.17 301.302L331.906 302.111L331.914 302.122L331.921 302.134L333.17 301.302ZM355.17 301.902L356.049 303.117L356.063 303.107L356.076 303.097L355.17 301.902ZM369.77 287.102L368.631 286.126L368.624 286.133L369.77 287.102ZM379.17 286.702L377.874 287.458L377.897 287.497L377.921 287.534L379.17 286.702ZM376.97 305.702L378.123 306.66L378.126 306.657L376.97 305.702ZM357.77 323.702L356.944 322.45L356.944 322.45L357.77 323.702ZM312.17 321.902L311.134 322.988L311.141 322.994L311.148 323L312.17 321.902ZM301.37 298.902L302.853 298.681L302.131 293.825L300.016 298.256L301.37 298.902ZM257.77 328.402C248.829 328.402 240.767 326.203 233.548 321.82L231.991 324.384C239.705 329.068 248.31 331.402 257.77 331.402V328.402ZM233.558 321.826C226.487 317.455 220.867 311.143 216.711 302.831L214.028 304.173C218.405 312.928 224.386 319.683 231.981 324.378L233.558 321.826ZM216.715 302.839C212.57 294.418 210.47 284.454 210.47 272.902H207.47C207.47 284.816 209.636 295.252 214.024 304.165L216.715 302.839ZM210.47 272.902C210.47 252.857 214.753 234.357 223.309 217.377L220.63 216.027C211.852 233.447 207.47 252.413 207.47 272.902H210.47ZM223.311 217.373C231.849 200.297 244.453 186.638 261.155 176.38L259.585 173.824C242.419 184.366 229.423 198.441 220.628 216.031L223.311 217.373ZM261.162 176.376C277.815 166.016 297.862 160.802 321.37 160.802V157.802C297.41 157.802 276.79 163.121 259.577 173.828L261.162 176.376ZM321.37 160.802C327.427 160.802 333.893 161.263 340.769 162.189L341.17 159.215C334.179 158.274 327.578 157.802 321.37 157.802V160.802ZM340.773 162.189C347.765 163.112 354.073 164.495 359.705 166.328L360.634 163.476C354.799 161.576 348.308 160.158 341.166 159.215L340.773 162.189ZM359.757 166.344C361.36 166.802 362.441 167.563 363.141 168.562C363.85 169.575 364.27 170.982 364.27 172.902H367.27C367.27 170.556 366.756 168.495 365.598 166.842C364.431 165.175 362.713 164.069 360.582 163.46L359.757 166.344ZM364.27 172.902C364.27 175.946 363.11 178.874 360.638 181.718L362.901 183.686C365.762 180.396 367.27 176.791 367.27 172.902H364.27ZM360.613 181.747C358.318 184.525 355.72 185.802 352.77 185.802V188.802C356.753 188.802 360.155 187.012 362.926 183.657L360.613 181.747ZM352.77 185.802C351.734 185.802 351.083 185.734 350.733 185.647L350.006 188.557C350.723 188.736 351.672 188.802 352.77 188.802V185.802ZM350.707 185.64C343.746 184.034 337.764 182.89 332.77 182.215L332.369 185.188C337.241 185.847 343.127 186.97 350.032 188.564L350.707 185.64ZM332.81 182.221C327.79 181.407 322.509 181.002 316.97 181.002V184.002C322.363 184.002 327.482 184.397 332.329 185.183L332.81 182.221ZM316.97 181.002C299.783 181.002 285.071 185.201 272.912 193.671L274.627 196.133C286.201 188.07 300.289 184.002 316.97 184.002V181.002ZM272.922 193.665C260.818 201.961 251.771 212.984 245.794 226.703L248.545 227.901C254.301 214.687 262.988 204.11 274.618 196.139L272.922 193.665ZM245.794 226.703C239.84 240.37 236.87 255.109 236.87 270.902H239.87C239.87 255.495 242.765 241.167 248.545 227.901L245.794 226.703ZM236.87 270.902C236.87 282.403 239.098 291.55 243.742 298.164L246.197 296.44C242.041 290.521 239.87 282.067 239.87 270.902H236.87ZM243.763 298.194C248.56 304.683 254.862 308.002 262.57 308.002V305.002C255.877 305.002 250.446 302.188 246.176 296.41L243.763 298.194ZM262.57 308.002C271.173 308.002 278.692 304.454 285.073 297.518L282.866 295.486C276.98 301.883 270.233 305.002 262.57 305.002V308.002ZM285.073 297.518C291.417 290.623 297.099 279.59 302.19 264.584L299.349 263.62C294.307 278.481 288.789 289.048 282.866 295.486L285.073 297.518ZM302.19 264.584C307.288 249.558 312.303 229.216 317.242 203.586L314.297 203.018C309.369 228.588 304.384 248.78 299.349 263.62L302.19 264.584ZM317.236 203.616C317.982 200.134 319.407 198.064 321.298 197.013L319.841 194.391C316.932 196.007 315.157 199.003 314.303 202.988L317.236 203.616ZM321.298 197.013C323.396 195.847 326.316 195.202 330.17 195.202V192.202C326.023 192.202 322.543 192.89 319.841 194.391L321.298 197.013ZM330.17 195.202C334.789 195.202 337.994 195.959 340.004 197.261C341.901 198.49 342.87 200.291 342.87 202.902H345.87C345.87 199.38 344.471 196.581 341.635 194.743C338.911 192.978 335.017 192.202 330.17 192.202V195.202ZM342.87 202.902C342.87 203.799 342.699 205 342.314 206.538L345.225 207.266C345.64 205.604 345.87 204.139 345.87 202.902H342.87ZM342.321 206.514C338.842 219.491 335.634 233.863 332.695 249.627L335.644 250.177C338.572 234.475 341.763 220.18 345.218 207.29L342.321 206.514ZM332.693 249.637C329.889 265.259 328.47 277.232 328.47 285.502H331.47C331.47 277.506 332.85 265.745 335.646 250.167L332.693 249.637ZM328.47 285.502C328.47 292.786 329.537 298.409 331.906 302.111L334.433 300.493C332.535 297.529 331.47 292.618 331.47 285.502H328.47ZM331.921 302.134C334.377 305.817 338.152 307.602 342.97 307.602V304.602C338.987 304.602 336.229 303.187 334.418 300.47L331.921 302.134ZM342.97 307.602C347.589 307.602 351.959 306.079 356.049 303.117L354.29 300.687C350.647 303.325 346.883 304.602 342.97 304.602V307.602ZM356.076 303.097C360.076 300.063 365.027 295.029 370.915 288.071L368.624 286.133C362.779 293.042 357.997 297.875 354.263 300.707L356.076 303.097ZM370.908 288.078C372.295 286.461 373.706 285.802 375.17 285.802V282.802C372.633 282.802 370.444 284.01 368.631 286.126L370.908 288.078ZM375.17 285.802C376.326 285.802 377.187 286.28 377.874 287.458L380.465 285.946C379.286 283.924 377.48 282.802 375.17 282.802V285.802ZM377.921 287.534C378.765 288.799 379.27 290.67 379.27 293.302H382.27C382.27 290.334 381.708 287.805 380.418 285.87L377.921 287.534ZM379.27 293.302C379.27 298.262 378.064 302.022 375.813 304.747L378.126 306.657C380.942 303.249 382.27 298.742 382.27 293.302H379.27ZM375.816 304.744C369.345 312.535 363.052 318.421 356.944 322.45L358.595 324.954C365.021 320.716 371.527 314.602 378.123 306.66L375.816 304.744ZM356.944 322.45C350.969 326.391 343.604 328.402 334.77 328.402V331.402C344.068 331.402 352.037 329.28 358.595 324.954L356.944 322.45ZM334.77 328.402C325.738 328.402 318.595 325.831 313.191 320.804L311.148 323C317.211 328.64 325.134 331.402 334.77 331.402V328.402ZM313.205 320.816C307.77 315.634 304.284 308.305 302.853 298.681L299.886 299.123C301.389 309.232 305.103 317.236 311.134 322.988L313.205 320.816ZM300.016 298.256C295.162 308.423 289.208 315.947 282.2 320.929C275.207 325.902 267.083 328.402 257.77 328.402V331.402C267.656 331.402 276.398 328.736 283.939 323.374C291.464 318.024 297.71 310.048 302.723 299.548L300.016 298.256ZM444.396 286.702L443.1 287.458L443.123 287.497L443.148 287.534L444.396 286.702ZM442.196 305.702L441.061 304.722L441.046 304.739L441.031 304.757L442.196 305.702ZM423.396 323.102L422.564 321.854L422.553 321.862L423.396 323.102ZM374.396 313.902L373.068 314.599L373.071 314.606L373.075 314.612L374.396 313.902ZM372.196 216.902L370.727 216.601L370.725 216.61L372.196 216.902ZM390.796 163.302L389.484 162.575L389.479 162.585L390.796 163.302ZM435.196 149.902L433.91 150.674L433.92 150.691L433.931 150.707L435.196 149.902ZM427.596 230.502L426.213 229.921L426.213 229.921L427.596 230.502ZM391.796 292.702L390.587 291.815L390.21 292.327L390.317 292.954L391.796 292.702ZM396.396 304.502L395.275 305.499L395.289 305.514L395.304 305.53L396.396 304.502ZM419.196 303.302L420.09 304.507L420.102 304.497L420.114 304.488L419.196 303.302ZM434.996 287.102L433.857 286.126L433.849 286.136L434.996 287.102ZM405.396 177.302L403.98 176.807L403.98 176.807L405.396 177.302ZM395.196 218.502L393.72 218.238L393.72 218.238L395.196 218.502ZM390.396 265.702L388.896 265.675L388.798 271.227L391.678 266.48L390.396 265.702ZM412.996 218.902L414.408 219.409L414.409 219.405L412.996 218.902ZM440.396 285.802C441.553 285.802 442.413 286.28 443.1 287.458L445.692 285.946C444.512 283.924 442.706 282.802 440.396 282.802V285.802ZM443.148 287.534C443.991 288.799 444.496 290.67 444.496 293.302H447.496C447.496 290.334 446.934 287.805 445.644 285.87L443.148 287.534ZM444.496 293.302C444.496 298.411 443.283 302.148 441.061 304.722L443.331 306.682C446.175 303.389 447.496 298.86 447.496 293.302H444.496ZM441.031 304.757C435.382 311.72 429.225 317.413 422.564 321.854L424.228 324.35C431.167 319.724 437.543 313.818 443.361 306.647L441.031 304.757ZM422.553 321.862C416.15 326.216 408.847 328.402 400.596 328.402V331.402C409.412 331.402 417.309 329.055 424.24 324.342L422.553 321.862ZM400.596 328.402C394.964 328.402 390.126 327.125 386.028 324.622C381.927 322.117 378.481 318.334 375.717 313.192L373.075 314.612C376.044 320.137 379.832 324.353 384.464 327.182C389.099 330.013 394.495 331.402 400.596 331.402V328.402ZM375.724 313.205C370.274 302.822 367.496 289.285 367.496 272.502H364.496C364.496 289.585 367.319 303.648 373.068 314.599L375.724 313.205ZM367.496 272.502C367.496 256.358 369.548 237.925 373.667 217.194L370.725 216.61C366.578 237.479 364.496 256.113 364.496 272.502H367.496ZM373.665 217.203C377.909 196.514 384.066 178.795 392.113 164.019L389.479 162.585C381.259 177.676 375.016 195.69 370.727 216.601L373.665 217.203ZM392.108 164.028C400.257 149.308 409.655 142.402 420.196 142.402V139.402C408.07 139.402 397.868 147.429 389.484 162.575L392.108 164.028ZM420.196 142.402C426.013 142.402 430.55 145.075 433.91 150.674L436.482 149.13C432.642 142.729 427.18 139.402 420.196 139.402V142.402ZM433.931 150.707C437.445 156.23 439.296 164.367 439.296 175.302H442.296C442.296 164.104 440.414 155.307 436.462 149.097L433.931 150.707ZM439.296 175.302C439.296 190.903 434.967 209.098 426.213 229.921L428.979 231.083C437.825 210.039 442.296 191.435 442.296 175.302H439.296ZM426.213 229.921C417.464 250.733 405.592 271.365 390.587 291.815L393.005 293.589C408.133 272.972 420.128 252.137 428.979 231.083L426.213 229.921ZM390.317 292.954C391.268 298.521 392.864 302.786 395.275 305.499L397.517 303.505C395.661 301.418 394.191 297.816 393.275 292.45L390.317 292.954ZM395.304 305.53C397.754 308.134 400.968 309.402 404.796 309.402V306.402C401.691 306.402 399.304 305.404 397.488 303.474L395.304 305.53ZM404.796 309.402C410.563 309.402 415.681 307.777 420.09 304.507L418.302 302.097C414.444 304.96 409.962 306.402 404.796 306.402V309.402ZM420.114 304.488C424.376 301.189 429.725 295.691 436.143 288.068L433.849 286.136C427.468 293.713 422.283 299.015 418.278 302.116L420.114 304.488ZM436.135 288.078C437.521 286.461 438.933 285.802 440.396 285.802V282.802C437.86 282.802 435.671 284.01 433.857 286.126L436.135 288.078ZM415.796 159.202C414.556 159.202 413.433 159.764 412.452 160.595C411.472 161.424 410.535 162.603 409.625 164.056C407.803 166.964 405.926 171.238 403.98 176.807L406.812 177.797C408.733 172.3 410.523 168.274 412.167 165.648C412.99 164.335 413.736 163.438 414.391 162.884C415.043 162.332 415.503 162.202 415.796 162.202V159.202ZM403.98 176.807C400.079 187.973 396.662 201.789 393.72 218.238L396.673 218.766C399.597 202.415 402.98 188.764 406.812 177.797L403.98 176.807ZM393.72 218.238C390.774 234.708 389.165 250.521 388.896 265.675L391.896 265.729C392.161 250.749 393.752 235.096 396.673 218.766L393.72 218.238ZM391.678 266.48C401.192 250.803 408.771 235.112 414.408 219.409L411.584 218.395C406.021 233.892 398.533 249.401 389.114 264.924L391.678 266.48ZM414.409 219.405C420.051 203.555 422.896 189.048 422.896 175.902H419.896C419.896 188.622 417.141 202.782 411.583 218.399L414.409 219.405ZM422.896 175.902C422.896 170.785 422.43 166.77 421.404 163.983C420.887 162.581 420.193 161.39 419.252 160.54C418.28 159.66 417.106 159.202 415.796 159.202V162.202C416.353 162.202 416.812 162.377 417.24 162.764C417.699 163.18 418.172 163.89 418.589 165.021C419.428 167.3 419.896 170.885 419.896 175.902H422.896ZM509.63 286.702L508.335 287.458L508.357 287.497L508.382 287.534L509.63 286.702ZM507.43 305.702L506.295 304.722L506.28 304.739L506.266 304.757L507.43 305.702ZM488.63 323.102L487.798 321.854L487.787 321.862L488.63 323.102ZM439.63 313.902L438.302 314.599L438.306 314.606L438.309 314.612L439.63 313.902ZM437.43 216.902L435.961 216.601L435.959 216.61L437.43 216.902ZM456.03 163.302L454.718 162.575L454.713 162.585L456.03 163.302ZM500.43 149.902L499.144 150.674L499.154 150.691L499.165 150.707L500.43 149.902ZM492.83 230.502L491.448 229.921L491.448 229.921L492.83 230.502ZM457.03 292.702L455.821 291.815L455.445 292.327L455.552 292.954L457.03 292.702ZM461.63 304.502L460.509 305.499L460.524 305.514L460.538 305.53L461.63 304.502ZM484.43 303.302L485.324 304.507L485.337 304.497L485.349 304.488L484.43 303.302ZM500.23 287.102L499.092 286.126L499.083 286.136L500.23 287.102ZM470.63 177.302L469.214 176.807L469.214 176.807L470.63 177.302ZM460.43 218.502L458.954 218.238L458.954 218.238L460.43 218.502ZM455.63 265.702L454.131 265.675L454.032 271.227L456.913 266.48L455.63 265.702ZM478.23 218.902L479.642 219.409L479.644 219.405L478.23 218.902ZM505.63 285.802C506.787 285.802 507.648 286.28 508.335 287.458L510.926 285.946C509.747 283.924 507.941 282.802 505.63 282.802V285.802ZM508.382 287.534C509.226 288.799 509.73 290.67 509.73 293.302H512.73C512.73 290.334 512.169 287.805 510.879 285.87L508.382 287.534ZM509.73 293.302C509.73 298.411 508.518 302.148 506.295 304.722L508.566 306.682C511.41 303.389 512.73 298.86 512.73 293.302H509.73ZM506.266 304.757C500.617 311.72 494.46 317.413 487.798 321.854L489.463 324.35C496.401 319.724 502.778 313.818 508.595 306.647L506.266 304.757ZM487.787 321.862C481.384 326.216 474.082 328.402 465.83 328.402V331.402C474.646 331.402 482.544 329.055 489.474 324.342L487.787 321.862ZM465.83 328.402C460.198 328.402 455.361 327.125 451.262 324.622C447.161 322.117 443.716 318.334 440.952 313.192L438.309 314.612C441.279 320.137 445.066 324.353 449.699 327.182C454.334 330.013 459.729 331.402 465.83 331.402V328.402ZM440.959 313.205C435.508 302.822 432.73 289.285 432.73 272.502H429.73C429.73 289.585 432.553 303.648 438.302 314.599L440.959 313.205ZM432.73 272.502C432.73 256.358 434.782 237.925 438.902 217.194L435.959 216.61C431.812 237.479 429.73 256.113 429.73 272.502H432.73ZM438.9 217.203C443.144 196.514 449.301 178.795 457.348 164.019L454.713 162.585C446.494 177.676 440.25 195.69 435.961 216.601L438.9 217.203ZM457.343 164.028C465.492 149.308 474.889 142.402 485.43 142.402V139.402C473.305 139.402 463.103 147.429 454.718 162.575L457.343 164.028ZM485.43 142.402C491.247 142.402 495.785 145.075 499.144 150.674L501.717 149.13C497.876 142.729 492.414 139.402 485.43 139.402V142.402ZM499.165 150.707C502.679 156.23 504.53 164.367 504.53 175.302H507.53C507.53 164.104 505.648 155.307 501.696 149.097L499.165 150.707ZM504.53 175.302C504.53 190.903 500.201 209.098 491.448 229.921L494.213 231.083C503.06 210.039 507.53 191.435 507.53 175.302H504.53ZM491.448 229.921C482.698 250.733 470.826 271.365 455.821 291.815L458.24 293.589C473.368 272.972 485.363 252.137 494.213 231.083L491.448 229.921ZM455.552 292.954C456.502 298.521 458.098 302.786 460.509 305.499L462.752 303.505C460.896 301.418 459.425 297.816 458.509 292.45L455.552 292.954ZM460.538 305.53C462.989 308.134 466.202 309.402 470.03 309.402V306.402C466.925 306.402 464.539 305.404 462.723 303.474L460.538 305.53ZM470.03 309.402C475.798 309.402 480.916 307.777 485.324 304.507L483.537 302.097C479.678 304.96 475.197 306.402 470.03 306.402V309.402ZM485.349 304.488C489.61 301.189 494.959 295.691 501.378 288.068L499.083 286.136C492.702 293.713 487.517 299.015 483.512 302.116L485.349 304.488ZM501.369 288.078C502.756 286.461 504.167 285.802 505.63 285.802V282.802C503.094 282.802 500.905 284.01 499.092 286.126L501.369 288.078ZM481.03 159.202C479.791 159.202 478.667 159.764 477.686 160.595C476.707 161.424 475.77 162.603 474.859 164.056C473.037 166.964 471.16 171.238 469.214 176.807L472.047 177.797C473.967 172.3 475.757 168.274 477.402 165.648C478.225 164.335 478.971 163.438 479.625 162.884C480.277 162.332 480.737 162.202 481.03 162.202V159.202ZM469.214 176.807C465.313 187.973 461.896 201.789 458.954 218.238L461.907 218.766C464.832 202.415 468.214 188.764 472.047 177.797L469.214 176.807ZM458.954 218.238C456.008 234.708 454.399 250.521 454.131 265.675L457.13 265.729C457.395 250.749 458.986 235.096 461.907 218.766L458.954 218.238ZM456.913 266.48C466.426 250.803 474.005 235.112 479.642 219.409L476.819 218.395C471.256 233.892 463.768 249.401 454.348 264.924L456.913 266.48ZM479.644 219.405C485.285 203.555 488.13 189.048 488.13 175.902H485.13C485.13 188.622 482.376 202.782 476.817 218.399L479.644 219.405ZM488.13 175.902C488.13 170.785 487.665 166.77 486.638 163.983C486.121 162.581 485.427 161.39 484.487 160.54C483.515 159.66 482.34 159.202 481.03 159.202V162.202C481.587 162.202 482.046 162.377 482.474 162.764C482.934 163.18 483.406 163.89 483.823 165.021C484.663 167.3 485.13 170.885 485.13 175.902H488.13ZM508.265 320.502L507.458 321.767L507.47 321.774L508.265 320.502ZM496.065 272.702L494.81 271.88L494.81 271.88L496.065 272.702ZM516.065 269.702L517.018 268.544L517.018 268.544L516.065 269.702ZM518.865 283.902L517.394 283.608L517.365 283.753V283.902H518.865ZM518.465 286.702L516.994 286.408L516.98 286.48L516.972 286.553L518.465 286.702ZM527.265 304.302L526.606 305.65L526.618 305.655L527.265 304.302ZM579.465 302.702L580.26 303.974L580.269 303.968L580.279 303.962L579.465 302.702ZM584.665 273.902L583.539 274.893L583.549 274.904L583.559 274.916L584.665 273.902ZM573.665 265.702L572.978 267.035L572.994 267.044L573.01 267.052L573.665 265.702ZM555.065 257.502L555.622 256.109L555.609 256.104L555.065 257.502ZM529.865 246.102L529.129 247.409L529.141 247.416L529.865 246.102ZM513.265 231.502L512.05 232.381L512.06 232.396L512.071 232.41L513.265 231.502ZM514.065 182.702L512.834 181.845L512.829 181.852L512.824 181.86L514.065 182.702ZM536.265 165.302L535.679 163.921L535.672 163.924L536.265 165.302ZM597.265 163.502L596.756 164.913L596.766 164.917L596.777 164.92L597.265 163.502ZM616.665 176.502L615.504 177.452L615.51 177.46L615.517 177.467L616.665 176.502ZM600.265 220.302L599.237 221.394L599.252 221.409L599.268 221.423L600.265 220.302ZM597.465 205.702L598.939 205.978L598.951 205.915L598.957 205.851L597.465 205.702ZM589.865 185.302L590.574 183.98L590.574 183.98L589.865 185.302ZM543.065 187.302L543.916 188.537L543.921 188.533L543.065 187.302ZM538.665 217.902L537.523 218.875L537.533 218.887L537.544 218.899L538.665 217.902ZM550.465 226.902L551.151 225.568L551.151 225.568L550.465 226.902ZM570.065 235.502L570.631 234.113L570.625 234.11L570.618 234.108L570.065 235.502ZM610.065 260.302L608.861 261.197L608.868 261.206L608.875 261.215L610.065 260.302ZM598.665 317.902L599.531 319.126L599.534 319.124L598.665 317.902ZM550.865 329.002C533.303 329.002 519.409 325.698 509.06 319.23L507.47 321.774C518.454 328.639 532.96 332.002 550.865 332.002V329.002ZM509.071 319.237C498.884 312.743 493.765 302.915 493.765 289.502H490.765C490.765 303.822 496.312 314.661 507.459 321.767L509.071 319.237ZM493.765 289.502C493.765 282.304 495.015 277.042 497.32 273.524L494.81 271.88C492.048 276.095 490.765 282.033 490.765 289.502H493.765ZM497.32 273.524C499.554 270.113 502.797 268.402 507.265 268.402V265.402C501.866 265.402 497.642 267.557 494.81 271.88L497.32 273.524ZM507.265 268.402C510.598 268.402 513.17 269.261 515.111 270.86L517.018 268.544C514.427 266.41 511.131 265.402 507.265 265.402V268.402ZM515.111 270.86C517.032 272.442 517.965 274.417 517.965 276.902H520.965C520.965 273.52 519.631 270.695 517.018 268.544L515.111 270.86ZM517.965 276.902C517.965 279.498 517.77 281.729 517.394 283.608L520.336 284.196C520.76 282.075 520.965 279.639 520.965 276.902H517.965ZM517.365 283.902C517.365 284.269 517.262 285.068 516.994 286.408L519.936 286.996C520.201 285.67 520.365 284.602 520.365 283.902H517.365ZM516.972 286.553C516.834 287.94 516.765 289.39 516.765 290.902H519.765C519.765 289.481 519.829 288.131 519.957 286.851L516.972 286.553ZM516.765 290.902C516.765 294.164 517.585 297.08 519.27 299.588C520.948 302.088 523.426 304.095 526.606 305.65L527.924 302.954C525.104 301.576 523.081 299.883 521.76 297.916C520.445 295.958 519.765 293.64 519.765 290.902H516.765ZM526.618 305.655C533.039 308.726 541.828 310.202 552.865 310.202V307.202C542.035 307.202 533.757 305.744 527.912 302.949L526.618 305.655ZM552.865 310.202C564.348 310.202 573.53 308.18 580.26 303.974L578.67 301.43C572.599 305.224 564.048 307.202 552.865 307.202V310.202ZM580.279 303.962C587.086 299.565 590.565 293.368 590.565 285.502H587.565C587.565 292.303 584.643 297.572 578.651 301.442L580.279 303.962ZM590.565 285.502C590.565 280.612 588.97 276.378 585.771 272.888L583.559 274.916C586.227 277.826 587.565 281.326 587.565 285.502H590.565ZM585.791 272.911C582.713 269.413 578.881 266.564 574.319 264.352L573.01 267.052C577.249 269.107 580.75 271.724 583.539 274.893L585.791 272.911ZM574.352 264.369C569.89 262.07 563.639 259.316 555.622 256.109L554.508 258.895C562.491 262.088 568.64 264.801 572.978 267.035L574.352 264.369ZM555.609 256.104C545.378 252.118 537.044 248.345 530.589 244.788L529.141 247.416C535.752 251.059 544.218 254.886 554.52 258.9L555.609 256.104ZM530.6 244.795C524.387 241.3 519.008 236.572 514.459 230.594L512.071 232.41C516.855 238.698 522.542 243.704 529.129 247.409L530.6 244.795ZM514.48 230.623C510.165 224.658 507.965 217.248 507.965 208.302H504.965C504.965 217.756 507.298 225.813 512.05 232.381L514.48 230.623ZM507.965 208.302C507.965 198.982 510.419 190.746 515.306 183.544L512.824 181.86C507.577 189.591 504.965 198.422 504.965 208.302H507.965ZM515.296 183.559C520.313 176.355 527.476 170.719 536.858 166.68L535.672 163.924C525.854 168.151 518.216 174.116 512.834 181.845L515.296 183.559ZM536.851 166.683C546.361 162.644 557.554 160.602 570.465 160.602V157.602C557.243 157.602 545.635 159.693 535.679 163.921L536.851 166.683ZM570.465 160.602C580.046 160.602 588.805 162.045 596.756 164.913L597.774 162.091C589.458 159.092 580.35 157.602 570.465 157.602V160.602ZM596.777 164.92C604.683 167.642 610.903 171.829 615.504 177.452L617.826 175.552C612.827 169.442 606.113 164.962 597.753 162.084L596.777 164.92ZM615.517 177.467C620.197 183.033 622.565 189.879 622.565 198.102H625.565C625.565 189.258 623 181.705 617.813 175.537L615.517 177.467ZM622.565 198.102C622.565 206.397 621.306 212.411 618.975 216.336L621.555 217.868C624.291 213.26 625.565 206.607 625.565 198.102H622.565ZM618.975 216.336C616.71 220.151 613.465 222.002 609.065 222.002V225.002C614.531 225.002 618.753 222.586 621.555 217.868L618.975 216.336ZM609.065 222.002C605.934 222.002 603.364 221.05 601.261 219.181L599.268 221.423C601.966 223.821 605.263 225.002 609.065 225.002V222.002ZM601.293 219.21C599.307 217.34 598.365 215.194 598.365 212.702H595.365C595.365 216.076 596.69 218.997 599.237 221.394L601.293 219.21ZM598.365 212.702C598.365 210.246 598.559 208.007 598.939 205.978L595.991 205.426C595.571 207.664 595.365 210.091 595.365 212.702H598.365ZM598.957 205.851C599.355 201.876 599.565 199.26 599.565 198.102H596.565C596.565 199.078 596.375 201.528 595.972 205.553L598.957 205.851ZM599.565 198.102C599.565 195.046 598.815 192.293 597.278 189.893C595.746 187.501 593.483 185.541 590.574 183.98L589.156 186.624C591.714 187.996 593.551 189.636 594.752 191.511C595.948 193.378 596.565 195.558 596.565 198.102H599.565ZM590.574 183.98C584.832 180.899 577.771 179.402 569.465 179.402V182.402C577.425 182.402 583.964 183.838 589.156 186.624L590.574 183.98ZM569.465 179.402C557.845 179.402 548.695 181.558 542.208 186.071L543.921 188.533C549.702 184.512 558.151 182.402 569.465 182.402V179.402ZM542.214 186.067C535.787 190.494 532.565 196.834 532.565 204.902H535.565C535.565 197.77 538.343 192.377 543.916 188.537L542.214 186.067ZM532.565 204.902C532.565 210.298 534.208 214.983 537.523 218.875L539.807 216.929C536.988 213.621 535.565 209.64 535.565 204.902H532.565ZM537.544 218.899C540.877 222.649 544.962 225.759 549.779 228.236L551.151 225.568C546.634 223.245 542.852 220.355 539.786 216.905L537.544 218.899ZM549.779 228.236C554.509 230.668 561.094 233.556 569.512 236.896L570.618 234.108C562.236 230.782 555.754 227.936 551.151 225.568L549.779 228.236ZM569.498 236.891C579.606 241.014 587.683 244.723 593.749 248.02L595.181 245.384C588.98 242.014 580.791 238.257 570.631 234.113L569.498 236.891ZM593.749 248.02C599.686 251.247 604.721 255.634 608.861 261.197L611.268 259.406C606.875 253.503 601.51 248.824 595.181 245.384L593.749 248.02ZM608.875 261.215C613.042 266.645 615.165 273.376 615.165 281.502H618.165C618.165 272.828 615.887 265.425 611.255 259.389L608.875 261.215ZM615.165 281.502C615.165 296.789 609.369 308.45 597.796 316.68L599.534 319.124C611.961 310.288 618.165 297.682 618.165 281.502H615.165ZM597.798 316.678C586.264 324.842 570.668 329.002 550.865 329.002V332.002C571.062 332.002 587.332 327.762 599.531 319.126L597.798 316.678ZM744.537 286.702L743.241 287.458L743.264 287.497L743.289 287.534L744.537 286.702ZM742.337 305.702L741.201 304.722L741.186 304.739L741.172 304.757L742.337 305.702ZM723.737 323.102L722.893 321.862L722.887 321.866L722.882 321.87L723.737 323.102ZM684.137 322.302L685.269 321.318L684.414 320.334L683.32 321.044L684.137 322.302ZM660.337 329.902L660.313 328.402L658.933 328.424L658.84 329.801L660.337 329.902ZM648.537 394.302L647.124 393.798L647.123 393.802L648.537 394.302ZM609.337 345.102L607.919 344.611L607.918 344.615L609.337 345.102ZM637.137 287.702L638.424 288.473L638.637 288.117V287.702H637.137ZM636.737 247.102L635.238 247.154L635.238 247.155L636.737 247.102ZM641.337 237.902L642.204 239.126L642.204 239.126L641.337 237.902ZM659.337 236.302L658.276 237.363L658.335 237.421L658.4 237.473L659.337 236.302ZM661.537 242.902H663.037V242.872L663.036 242.842L661.537 242.902ZM661.737 250.302L660.242 250.427L660.555 254.181L662.908 251.239L661.737 250.302ZM674.337 238.902L675.058 240.217L675.074 240.208L675.09 240.199L674.337 238.902ZM705.737 244.302L704.553 245.223L704.559 245.231L704.565 245.239L705.737 244.302ZM709.537 288.502L708.117 288.019L708.117 288.019L709.537 288.502ZM700.137 306.702L698.926 305.816L697.655 307.553L699.725 308.144L700.137 306.702ZM735.137 287.102L733.998 286.126L733.993 286.132L733.988 286.138L735.137 287.102ZM661.337 310.702L659.838 310.642L659.76 312.589L661.662 312.166L661.337 310.702ZM674.537 302.902L673.459 301.858L673.459 301.859L674.537 302.902ZM684.337 287.302L685.734 287.849L685.738 287.838L684.337 287.302ZM685.537 258.702L684.337 259.602L684.351 259.621L684.365 259.639L685.537 258.702ZM661.737 270.702L660.491 269.866L660.247 270.23L660.237 270.668L661.737 270.702ZM632.137 377.102L630.654 376.874L630.654 376.876L632.137 377.102ZM636.737 318.702L638.236 318.745L635.359 318.109L636.737 318.702ZM623.137 356.902L621.69 356.505L621.69 356.505L623.137 356.902ZM619.737 397.302L621.124 396.731L621.11 396.697L621.094 396.663L619.737 397.302ZM740.537 285.802C741.693 285.802 742.554 286.28 743.241 287.458L745.832 285.946C744.653 283.924 742.847 282.802 740.537 282.802V285.802ZM743.289 287.534C744.132 288.799 744.637 290.67 744.637 293.302H747.637C747.637 290.334 747.075 287.805 745.785 285.87L743.289 287.534ZM744.637 293.302C744.637 298.411 743.424 302.148 741.201 304.722L743.472 306.682C746.316 303.389 747.637 298.86 747.637 293.302H744.637ZM741.172 304.757C735.519 311.724 729.425 317.42 722.893 321.862L724.58 324.342C731.382 319.717 737.688 313.813 743.502 306.647L741.172 304.757ZM722.882 321.87C716.614 326.219 709.449 328.402 701.337 328.402V331.402C710.024 331.402 717.793 329.052 724.592 324.334L722.882 321.87ZM701.337 328.402C694.678 328.402 689.368 326.038 685.269 321.318L683.004 323.286C687.706 328.7 693.862 331.402 701.337 331.402V328.402ZM683.32 321.044C675.933 325.839 668.271 328.274 660.313 328.402L660.361 331.402C668.936 331.263 677.141 328.632 684.953 323.56L683.32 321.044ZM658.84 329.801C657.113 355.449 653.196 376.769 647.124 393.798L649.95 394.806C656.144 377.435 660.094 355.822 661.833 330.003L658.84 329.801ZM647.123 393.802C641.065 410.921 632.438 418.802 621.537 418.802V421.802C634.368 421.802 643.742 412.35 649.951 394.802L647.123 393.802ZM621.537 418.802C614.749 418.802 609.927 416.384 606.785 411.67L604.289 413.334C608.079 419.02 613.924 421.802 621.537 421.802V418.802ZM606.785 411.67C603.543 406.807 601.837 399.938 601.837 390.902H598.837C598.837 400.266 600.597 407.797 604.289 413.334L606.785 411.67ZM601.837 390.902C601.837 378.054 604.789 362.959 610.755 345.589L607.918 344.615C601.885 362.179 598.837 377.616 598.837 390.902H601.837ZM610.754 345.593C616.711 328.383 625.927 309.344 638.424 288.473L635.85 286.931C623.28 307.926 613.962 327.155 607.919 344.611L610.754 345.593ZM638.637 287.702C638.637 268.237 638.503 254.679 638.236 247.049L635.238 247.155C635.503 254.725 635.637 268.234 635.637 287.702H638.637ZM638.236 247.05C638.12 243.696 639.409 241.106 642.204 239.126L640.47 236.678C636.865 239.232 635.087 242.774 635.238 247.154L638.236 247.05ZM642.204 239.126C645.098 237.076 648.777 236.002 653.337 236.002V233.002C648.297 233.002 643.975 234.195 640.47 236.678L642.204 239.126ZM653.337 236.002C655.984 236.002 657.493 236.58 658.276 237.363L660.397 235.241C658.78 233.624 656.289 233.002 653.337 233.002V236.002ZM658.4 237.473C659.184 238.1 659.907 239.691 660.038 242.962L663.036 242.842C662.9 239.446 662.157 236.637 660.274 235.131L658.4 237.473ZM660.037 242.902C660.037 246.243 660.103 248.761 660.242 250.427L663.232 250.177C663.104 248.643 663.037 246.228 663.037 242.902H660.037ZM662.908 251.239C667.102 245.997 671.158 242.356 675.058 240.217L673.615 237.587C669.249 239.981 664.905 243.941 660.565 249.365L662.908 251.239ZM675.09 240.199C679 237.929 683.141 236.802 687.537 236.802V233.802C682.599 233.802 677.94 235.075 673.584 237.605L675.09 240.199ZM687.537 236.802C694.531 236.802 700.164 239.581 704.553 245.223L706.921 243.381C701.976 237.023 695.476 233.802 687.537 233.802V236.802ZM704.565 245.239C709.101 250.909 711.437 258.417 711.437 267.902H714.437C714.437 257.921 711.972 249.695 706.908 243.365L704.565 245.239ZM711.437 267.902C711.437 274.805 710.33 281.509 708.117 288.019L710.957 288.985C713.277 282.162 714.437 275.132 714.437 267.902H711.437ZM708.117 288.019C705.897 294.547 702.833 300.477 698.926 305.816L701.347 307.588C705.441 301.993 708.643 295.79 710.957 288.985L708.117 288.019ZM699.725 308.144C702.593 308.964 705.076 309.402 707.137 309.402V306.402C705.465 306.402 703.281 306.04 700.549 305.26L699.725 308.144ZM707.137 309.402C711.932 309.402 716.453 307.649 720.674 304.273L718.8 301.931C715.02 304.954 711.142 306.402 707.137 306.402V309.402ZM720.674 304.273C724.792 300.979 730.001 295.554 736.286 288.066L733.988 286.138C727.739 293.583 722.681 298.825 718.8 301.931L720.674 304.273ZM736.276 288.078C737.662 286.461 739.073 285.802 740.537 285.802V282.802C738 282.802 735.812 284.01 733.998 286.126L736.276 288.078ZM661.662 312.166C666.795 311.026 671.446 308.253 675.615 303.945L673.459 301.859C669.628 305.818 665.479 308.245 661.011 309.238L661.662 312.166ZM675.614 303.946C679.9 299.521 683.269 294.147 685.734 287.849L682.94 286.755C680.604 292.724 677.44 297.749 673.459 301.858L675.614 303.946ZM685.738 287.838C688.204 281.398 689.437 274.683 689.437 267.702H686.437C686.437 274.321 685.269 280.672 682.936 286.766L685.738 287.838ZM689.437 267.702C689.437 263.542 688.611 260.144 686.708 257.765L684.365 259.639C685.662 261.26 686.437 263.862 686.437 267.702H689.437ZM686.737 257.802C684.853 255.291 682.276 254.002 679.137 254.002V257.002C681.331 257.002 683.02 257.846 684.337 259.602L686.737 257.802ZM679.137 254.002C676.21 254.002 673.217 255.536 670.2 258.172C667.161 260.827 663.927 264.746 660.491 269.866L662.982 271.538C666.346 266.524 669.412 262.844 672.174 260.432C674.956 258.001 677.264 257.002 679.137 257.002V254.002ZM660.237 270.668C660.103 276.552 660.037 285.166 660.037 296.502H663.037C663.037 285.172 663.103 276.585 663.236 270.736L660.237 270.668ZM660.037 296.502C660.037 302.629 659.97 307.339 659.838 310.642L662.836 310.762C662.97 307.399 663.037 302.642 663.037 296.502H660.037ZM623.137 402.202C624.645 402.202 625.889 401.364 626.873 400.191C627.853 399.024 628.712 397.373 629.488 395.336C631.046 391.251 632.415 385.225 633.62 377.328L630.654 376.876C629.458 384.713 628.127 390.486 626.685 394.267C625.962 396.165 625.246 397.463 624.575 398.263C623.909 399.057 623.429 399.202 623.137 399.202V402.202ZM633.619 377.33C636.032 361.647 637.568 342.114 638.236 318.745L635.237 318.659C634.572 341.957 633.041 361.357 630.654 376.874L633.619 377.33ZM635.359 318.109C629.602 331.497 625.044 344.296 621.69 356.505L624.583 357.299C627.896 345.242 632.405 332.574 638.115 319.295L635.359 318.109ZM621.69 356.505C618.338 368.707 616.637 379.051 616.637 387.502H619.637C619.637 379.42 621.269 369.363 624.583 357.299L621.69 356.505ZM616.637 387.502C616.637 391.855 617.175 395.381 618.379 397.941L621.094 396.663C620.165 394.69 619.637 391.682 619.637 387.502H616.637ZM618.35 397.873C619.311 400.207 620.797 402.202 623.137 402.202V399.202C622.81 399.202 622.03 398.931 621.124 396.731L618.35 397.873ZM734.826 320.902L735.984 319.949L735.984 319.949L734.826 320.902ZM734.826 267.102L736.156 267.795L736.16 267.788L734.826 267.102ZM754.426 244.102L755.29 245.328L755.294 245.325L754.426 244.102ZM786.426 237.102L785.242 238.023L785.299 238.097L785.365 238.163L786.426 237.102ZM789.026 243.102L787.563 243.434L787.884 244.846L789.306 244.575L789.026 243.102ZM804.626 269.302L806.097 269.596L806.098 269.589L806.099 269.582L804.626 269.302ZM801.426 306.102L800.242 307.023L800.272 307.062L800.305 307.099L801.426 306.102ZM814.626 303.102L815.622 304.223L815.634 304.213L815.645 304.203L814.626 303.102ZM829.226 287.102L828.087 286.126L828.081 286.133L828.075 286.14L829.226 287.102ZM838.626 286.702L837.33 287.458L837.353 287.497L837.378 287.534L838.626 286.702ZM836.426 305.702L835.291 304.722L835.273 304.742L835.257 304.762L836.426 305.702ZM819.026 322.902L819.934 324.096L819.934 324.096L819.026 322.902ZM789.026 325.502L788.053 326.644L788.076 326.663L788.099 326.681L789.026 325.502ZM780.826 313.102L782.238 312.595L781.187 309.669L779.55 312.312L780.826 313.102ZM770.226 304.502L769.037 303.587L769.037 303.587L770.226 304.502ZM776.026 290.702L777.494 291.009L777.496 290.998L776.026 290.702ZM783.426 253.902L784.896 254.198L785.266 252.358L783.39 252.402L783.426 253.902ZM767.826 260.302L768.802 261.441L768.805 261.439L767.826 260.302ZM756.626 276.302L758.009 276.883L758.009 276.883L756.626 276.302ZM754.826 306.702L753.654 307.639L753.673 307.662L753.692 307.684L754.826 306.702ZM754.626 328.402C746.775 328.402 740.612 325.578 735.984 319.949L733.667 321.855C738.906 328.226 745.944 331.402 754.626 331.402V328.402ZM735.984 319.949C731.323 314.28 728.926 306.778 728.926 297.302H725.926C725.926 307.293 728.462 315.524 733.667 321.855L735.984 319.949ZM728.926 297.302C728.926 286.877 731.334 277.048 736.156 267.795L733.496 266.409C728.451 276.089 725.926 286.394 725.926 297.302H728.926ZM736.16 267.788C740.992 258.384 747.371 250.91 755.29 245.328L753.562 242.876C745.214 248.76 738.526 256.62 733.492 266.416L736.16 267.788ZM755.294 245.325C763.334 239.619 771.768 236.802 780.626 236.802V233.802C771.083 233.802 762.051 236.851 753.558 242.879L755.294 245.325ZM780.626 236.802C783.491 236.802 784.769 237.415 785.242 238.023L787.61 236.181C786.216 234.389 783.627 233.802 780.626 233.802V236.802ZM785.365 238.163C786.115 238.912 786.908 240.551 787.563 243.434L790.488 242.77C789.81 239.786 788.87 237.425 787.486 236.041L785.365 238.163ZM789.306 244.575C792.007 244.061 794.846 243.802 797.826 243.802V240.802C794.672 240.802 791.644 241.076 788.745 241.628L789.306 244.575ZM797.826 243.802C800.959 243.802 803.04 244.37 804.304 245.273C805.475 246.109 806.126 247.363 806.126 249.302H809.126C809.126 246.574 808.143 244.328 806.048 242.831C804.045 241.401 801.226 240.802 797.826 240.802V243.802ZM806.126 249.302C806.126 251.93 805.161 258.441 803.152 269.022L806.099 269.582C808.09 259.097 809.126 252.274 809.126 249.302H806.126ZM803.155 269.008C800.09 284.332 798.526 295.134 798.526 301.302H801.526C801.526 295.47 803.028 284.939 806.097 269.596L803.155 269.008ZM798.526 301.302C798.526 303.53 799.047 305.487 800.242 307.023L802.61 305.181C801.938 304.317 801.526 303.074 801.526 301.302H798.526ZM800.305 307.099C801.655 308.617 803.396 309.402 805.426 309.402V306.402C804.256 306.402 803.33 305.986 802.547 305.105L800.305 307.099ZM805.426 309.402C808.539 309.402 811.964 307.475 815.622 304.223L813.629 301.981C810.087 305.129 807.38 306.402 805.426 306.402V309.402ZM815.645 304.203C819.317 300.803 824.233 295.41 830.376 288.064L828.075 286.14C821.952 293.461 817.135 298.735 813.607 302.001L815.645 304.203ZM830.365 288.078C831.751 286.461 833.162 285.802 834.626 285.802V282.802C832.089 282.802 829.901 284.01 828.087 286.126L830.365 288.078ZM834.626 285.802C835.782 285.802 836.643 286.28 837.33 287.458L839.921 285.946C838.742 283.924 836.936 282.802 834.626 282.802V285.802ZM837.378 287.534C838.221 288.799 838.726 290.67 838.726 293.302H841.726C841.726 290.334 841.164 287.805 839.874 285.87L837.378 287.534ZM838.726 293.302C838.726 298.411 837.513 302.148 835.291 304.722L837.561 306.682C840.405 303.389 841.726 298.86 841.726 293.302H838.726ZM835.257 304.762C829.857 311.479 824.142 317.124 818.118 321.708L819.934 324.096C826.176 319.346 832.062 313.524 837.595 306.642L835.257 304.762ZM818.118 321.708C812.156 326.244 806.534 328.402 801.226 328.402V331.402C807.384 331.402 813.629 328.893 819.934 324.096L818.118 321.708ZM801.226 328.402C797.189 328.402 793.444 327.066 789.953 324.322L788.099 326.681C792.074 329.805 796.462 331.402 801.226 331.402V328.402ZM789.998 324.36C786.629 321.49 784.031 317.591 782.238 312.595L779.414 313.609C781.354 319.013 784.223 323.381 788.053 326.644L789.998 324.36ZM779.55 312.312C772.812 323.198 764.506 328.402 754.626 328.402V331.402C765.812 331.402 774.973 325.406 782.101 313.892L779.55 312.312ZM761.826 311.202C765.419 311.202 768.608 309.065 771.415 305.417L769.037 303.587C766.51 306.872 764.099 308.202 761.826 308.202V311.202ZM771.415 305.417C774.257 301.721 776.263 296.892 777.494 291.009L774.558 290.395C773.389 295.979 771.528 300.35 769.037 303.587L771.415 305.417ZM777.496 290.998L784.896 254.198L781.955 253.606L774.555 290.406L777.496 290.998ZM783.39 252.402C777.398 252.545 771.873 254.837 766.847 259.165L768.805 261.439C773.378 257.5 778.254 255.526 783.461 255.402L783.39 252.402ZM766.85 259.163C761.977 263.34 758.117 268.877 755.243 275.721L758.009 276.883C760.734 270.393 764.341 265.264 768.802 261.441L766.85 259.163ZM755.243 275.721C752.363 282.578 750.926 289.842 750.926 297.502H753.926C753.926 290.228 755.289 283.36 758.009 276.883L755.243 275.721ZM750.926 297.502C750.926 301.782 751.746 305.253 753.654 307.639L755.997 305.765C754.706 304.151 753.926 301.489 753.926 297.502H750.926ZM753.692 307.684C755.743 310.051 758.51 311.202 761.826 311.202V308.202C759.275 308.202 757.375 307.353 755.959 305.72L753.692 307.684ZM831.571 318.902L830.491 319.943L830.501 319.953L830.51 319.963L831.571 318.902ZM827.171 261.102L828.499 261.799L828.499 261.799L827.171 261.102ZM843.771 242.302L842.956 241.043L842.956 241.043L843.771 242.302ZM882.171 242.302L881.061 243.311L881.077 243.329L881.094 243.346L882.171 242.302ZM884.571 273.102L883.316 272.28L883.306 272.295L883.297 272.311L884.571 273.102ZM868.771 277.102L867.821 278.263L867.846 278.283L867.871 278.302L868.771 277.102ZM867.571 266.302L866.148 265.828L866.13 265.882L866.116 265.938L867.571 266.302ZM867.171 256.702L866.032 257.678L866.07 257.722L866.11 257.763L867.171 256.702ZM854.971 259.502L856.032 260.563L856.045 260.55L856.057 260.536L854.971 259.502ZM848.571 270.502L847.152 270.015L847.152 270.015L848.571 270.502ZM883.971 303.702L884.718 305.003L884.727 304.998L883.971 303.702ZM902.771 287.102L901.632 286.126L901.626 286.133L901.62 286.14L902.771 287.102ZM912.171 286.702L910.875 287.458L910.898 287.497L910.923 287.534L912.171 286.702ZM909.971 305.702L911.136 306.646L911.142 306.64L911.147 306.633L909.971 305.702ZM887.371 323.702L888.017 325.056L888.026 325.052L887.371 323.702ZM862.171 328.402C849.393 328.402 839.615 324.825 832.632 317.841L830.51 319.963C838.194 327.646 848.816 331.402 862.171 331.402V328.402ZM832.651 317.861C825.766 310.721 822.271 301.318 822.271 289.502H819.271C819.271 301.953 822.976 312.15 830.491 319.943L832.651 317.861ZM822.271 289.502C822.271 278.902 824.364 269.682 828.499 261.799L825.843 260.405C821.445 268.788 819.271 278.502 819.271 289.502H822.271ZM828.499 261.799C832.663 253.863 838.03 247.803 844.586 243.561L842.956 241.043C835.912 245.601 830.213 252.074 825.843 260.405L828.499 261.799ZM844.586 243.561C851.165 239.305 858.018 237.202 865.171 237.202V234.202C857.391 234.202 849.978 236.499 842.956 241.043L844.586 243.561ZM865.171 237.202C872.188 237.202 877.41 239.294 881.061 243.311L883.281 241.293C878.932 236.509 872.821 234.202 865.171 234.202V237.202ZM881.094 243.346C884.916 247.292 886.871 252.431 886.871 258.902H889.871C889.871 251.773 887.692 245.846 883.248 241.258L881.094 243.346ZM886.871 258.902C886.871 264.272 885.659 268.705 883.316 272.28L885.826 273.924C888.55 269.766 889.871 264.732 889.871 258.902H886.871ZM883.297 272.311C881.126 275.809 878.373 277.402 874.971 277.402V280.402C879.569 280.402 883.217 278.129 885.846 273.893L883.297 272.311ZM874.971 277.402C872.675 277.402 870.949 276.861 869.671 275.902L867.871 278.302C869.793 279.743 872.201 280.402 874.971 280.402V277.402ZM869.721 275.941C868.649 275.064 868.071 273.849 868.071 272.102H865.071C865.071 274.621 865.96 276.74 867.821 278.263L869.721 275.941ZM868.071 272.102C868.071 271.306 868.185 270.352 868.435 269.227L865.507 268.577C865.223 269.852 865.071 271.031 865.071 272.102H868.071ZM868.435 269.227C868.702 268.029 868.898 267.178 869.026 266.666L866.116 265.938C865.977 266.492 865.774 267.375 865.507 268.577L868.435 269.227ZM868.994 266.776C869.701 264.655 870.071 262.627 870.071 260.702H867.071C867.071 262.244 866.774 263.949 866.148 265.828L868.994 266.776ZM870.071 260.702C870.071 258.7 869.526 256.936 868.232 255.641L866.11 257.763C866.683 258.335 867.071 259.237 867.071 260.702H870.071ZM868.31 255.726C867.144 254.366 865.468 253.802 863.571 253.802V256.802C864.874 256.802 865.598 257.171 866.032 257.678L868.31 255.726ZM863.571 253.802C859.993 253.802 856.756 255.453 853.885 258.467L856.057 260.536C858.519 257.951 861.016 256.802 863.571 256.802V253.802ZM853.91 258.441C851.04 261.311 848.804 265.197 847.152 270.015L849.99 270.988C851.538 266.474 853.569 263.026 856.032 260.563L853.91 258.441ZM847.152 270.015C845.492 274.858 844.671 280.159 844.671 285.902H847.671C847.671 280.445 848.45 275.479 849.99 270.988L847.152 270.015ZM844.671 285.902C844.671 293.819 846.39 300.038 850.09 304.287C853.824 308.576 859.348 310.602 866.371 310.602V307.602C859.927 307.602 855.351 305.761 852.352 302.317C849.319 298.833 847.671 293.451 847.671 285.902H844.671ZM866.371 310.602C872.171 310.602 878.295 308.692 884.718 305.003L883.224 302.401C877.114 305.911 871.504 307.602 866.371 307.602V310.602ZM884.727 304.998C891.313 301.156 897.708 295.494 903.922 288.064L901.62 286.14C895.568 293.377 889.429 298.782 883.215 302.406L884.727 304.998ZM903.91 288.078C905.296 286.461 906.708 285.802 908.171 285.802V282.802C905.635 282.802 903.446 284.01 901.632 286.126L903.91 288.078ZM908.171 285.802C909.328 285.802 910.188 286.28 910.875 287.458L913.467 285.946C912.287 283.924 910.481 282.802 908.171 282.802V285.802ZM910.923 287.534C911.766 288.799 912.271 290.67 912.271 293.302H915.271C915.271 290.334 914.709 287.805 913.419 285.87L910.923 287.534ZM912.271 293.302C912.271 298.114 911.072 301.895 908.795 304.771L911.147 306.633C913.937 303.109 915.271 298.623 915.271 293.302H912.271ZM908.806 304.758C902.675 312.323 895.315 318.183 886.717 322.352L888.026 325.052C897.027 320.687 904.734 314.548 911.136 306.646L908.806 304.758ZM886.725 322.348C878.224 326.402 870.044 328.402 862.171 328.402V331.402C870.565 331.402 879.185 329.268 888.017 325.056L886.725 322.348ZM973.204 292.702L971.908 293.458L971.931 293.497L971.956 293.534L973.204 292.702ZM971.404 311.702L970.148 310.881L970.147 310.883L971.404 311.702ZM956.604 325.102L955.91 323.772L955.898 323.778L956.604 325.102ZM905.204 318.502L904.097 319.514L904.105 319.523L905.204 318.502ZM900.404 261.702L901.75 262.364L901.754 262.355L900.404 261.702ZM916.404 242.702L915.566 241.458L915.555 241.465L916.404 242.702ZM958.404 242.702L957.343 243.763L957.351 243.77L957.359 243.778L958.404 242.702ZM955.404 285.102L954.343 284.041L954.343 284.041L955.404 285.102ZM921.804 300.702L921.449 299.245L919.588 299.698L920.474 301.396L921.804 300.702ZM951.404 306.102L950.541 304.875L950.53 304.883L950.519 304.891L951.404 306.102ZM963.804 293.302L962.633 292.365L962.626 292.373L962.62 292.381L963.804 293.302ZM923.804 263.902L922.52 263.126L922.514 263.137L922.507 263.148L923.804 263.902ZM918.804 285.102H917.304V287L919.15 286.561L918.804 285.102ZM937.404 276.702L936.45 275.544L936.45 275.544L937.404 276.702ZM942.004 257.702L940.852 258.662L940.895 258.715L940.943 258.763L942.004 257.702ZM969.204 291.802C970.361 291.802 971.221 292.28 971.908 293.458L974.5 291.946C973.32 289.924 971.514 288.802 969.204 288.802V291.802ZM971.956 293.534C972.799 294.799 973.304 296.67 973.304 299.302H976.304C976.304 296.334 975.742 293.805 974.452 291.87L971.956 293.534ZM973.304 299.302C973.304 303.858 972.231 307.695 970.148 310.881L972.659 312.523C975.11 308.775 976.304 304.346 976.304 299.302H973.304ZM970.147 310.883C966.556 316.398 961.818 320.69 955.91 323.772L957.298 326.432C963.657 323.114 968.785 318.472 972.661 312.52L970.147 310.883ZM955.898 323.778C950.161 326.838 943.215 328.402 935.004 328.402V331.402C943.593 331.402 951.047 329.766 957.31 326.426L955.898 323.778ZM935.004 328.402C922.516 328.402 913.021 324.706 906.302 317.481L904.105 319.523C911.52 327.497 921.892 331.402 935.004 331.402V328.402ZM906.311 317.49C899.556 310.097 896.104 300.091 896.104 287.302H893.104C893.104 300.647 896.719 311.44 904.097 319.514L906.311 317.49ZM896.104 287.302C896.104 278.32 897.99 270.014 901.75 262.364L899.058 261.04C895.085 269.123 893.104 277.884 893.104 287.302H896.104ZM901.754 262.355C905.517 254.571 910.684 248.446 917.253 243.939L915.555 241.465C908.523 246.291 903.025 252.833 899.053 261.049L901.754 262.355ZM917.241 243.946C923.918 239.453 931.424 237.202 939.804 237.202V234.202C930.851 234.202 922.757 236.618 915.566 241.458L917.241 243.946ZM939.804 237.202C947.213 237.202 953.006 239.425 957.343 243.763L959.465 241.641C954.468 236.645 947.861 234.202 939.804 234.202V237.202ZM957.359 243.778C961.675 247.971 963.904 253.75 963.904 261.302H966.904C966.904 253.121 964.466 246.499 959.449 241.626L957.359 243.778ZM963.904 261.302C963.904 270.093 960.736 277.648 954.343 284.041L956.465 286.163C963.405 279.222 966.904 270.911 966.904 261.302H963.904ZM954.343 284.041C948.102 290.282 937.226 295.4 921.449 299.245L922.159 302.159C938.115 298.271 949.639 292.988 956.465 286.163L954.343 284.041ZM920.474 301.396C922.192 304.688 924.534 307.214 927.513 308.906C930.484 310.594 934.002 311.402 938.004 311.402V308.402C934.406 308.402 931.423 307.677 928.995 306.298C926.574 304.923 924.616 302.849 923.134 300.008L920.474 301.396ZM938.004 311.402C943.701 311.402 948.503 310.08 952.289 307.313L950.519 304.891C947.372 307.191 943.24 308.402 938.004 308.402V311.402ZM952.267 307.329C956.046 304.67 960.286 300.268 964.988 294.223L962.62 292.381C957.988 298.336 953.962 302.468 950.541 304.875L952.267 307.329ZM964.975 294.239C966.377 292.486 967.783 291.802 969.204 291.802V288.802C966.625 288.802 964.43 290.118 962.633 292.365L964.975 294.239ZM936.404 253.802C930.764 253.802 926.15 257.124 922.52 263.126L925.088 264.678C928.392 259.214 932.177 256.802 936.404 256.802V253.802ZM922.507 263.148C919.014 269.157 917.304 276.363 917.304 284.702H920.304C920.304 276.774 921.928 270.114 925.101 264.656L922.507 263.148ZM917.304 284.702V285.102H920.304V284.702H917.304ZM919.15 286.561C927.16 284.661 933.594 281.783 938.357 277.86L936.45 275.544C932.147 279.088 926.181 281.81 918.458 283.643L919.15 286.561ZM938.357 277.86C943.164 273.902 945.704 269.17 945.704 263.702H942.704C942.704 268.1 940.711 272.036 936.45 275.544L938.357 277.86ZM945.704 263.702C945.704 260.865 944.873 258.449 943.065 256.641L940.943 258.763C942.069 259.888 942.704 261.473 942.704 263.702H945.704ZM943.156 256.742C941.493 254.745 939.173 253.802 936.404 253.802V256.802C938.434 256.802 939.848 257.458 940.852 258.662L943.156 256.742Z" fill="black" mask="url(#path-1-outside-1_6_2)"/>
</mask>
<g mask="url(#mask0_6_2)">
<rect width="1168" height="487" fill="url(#paint0_linear_6_2)"/>
</g>
<defs>
<linearGradient id="paint0_linear_6_2" x1="584" y1="0" x2="584" y2="487" gradientUnits="userSpaceOnUse">
<stop offset="0.2" stop-color="white"/>
<stop offset="0.4" stop-color="#FF5F8B"/>
<stop offset="0.7" stop-color="#FFCD1B"/>
<stop offset="1" stop-color="#FFF200"/>
</linearGradient>
</defs>
</svg>
